<?xml version="1.0" encoding="utf-8"?>
<!-- Generator: Adobe Illustrator 25.0.0, SVG Export Plug-In . SVG Version: 6.00 Build 0)  -->
<svg version="1.1" id="Layer_1" xmlns="http://www.w3.org/2000/svg" xmlns:xlink="http://www.w3.org/1999/xlink" x="0px" y="0px"
	 viewBox="0 0 202 42" style="enable-background:new 0 0 202 42;" xml:space="preserve">
<style type="text/css">
	.st0{fill:url(#SVGID_1_);}
	.st1{fill:url(#SVGID_2_);}
	.st2{fill:#FFFFFF;}
</style>
<g>
	<g>
		<g>
			<linearGradient id="SVGID_1_" gradientUnits="userSpaceOnUse" x1="148.484" y1="19.7474" x2="175.7763" y2="19.7474">
				<stop  offset="0" style="stop-color:#E7E56A"/>
				<stop  offset="1" style="stop-color:#12B3B9"/>
			</linearGradient>
			<path class="st0" d="M172.4,22.9h-2.8l1.5-6.3h1.3c1.1,0,1.9-0.2,2.5-0.6c0.6-0.4,0.8-1,0.8-1.7c0-1.6-1.2-2.4-3.6-2.4l0.9-4.1
				c0-0.1,0.1-0.2,0.1-0.5c0.1-0.3,0.1-0.5,0.2-0.8c0-0.3,0.1-0.6,0.1-0.9c0-0.7-0.2-1.2-0.7-1.6c-0.5-0.4-1.1-0.6-2-0.6
				c-0.7,0-1.3,0.2-1.7,0.5c-0.4,0.3-0.7,0.7-0.8,1.2c-0.1,0.5-0.3,1.1-0.5,1.8l-1.2,4.9h-5.4l0.9-4c0.3-1.3,0.4-2,0.4-2.2
				c0-0.6-0.2-1.2-0.7-1.6c-0.5-0.4-1.1-0.6-2-0.6c-0.6,0-1.1,0.1-1.5,0.4c-0.4,0.2-0.7,0.6-0.9,1.1c-0.2,0.5-0.4,1.1-0.6,2
				l-1.2,4.9h-3.7c-1.1,0-2,0.2-2.5,0.7c-0.4,0.3-0.6,0.7-0.8,1.1h9l0.9-4.3c0.1-0.3,0.4-0.5,0.7-0.5c0,0,0.1,0,0.1,0
				c0.4,0.1,0.6,0.4,0.6,0.7l-1,4.7c0,0.2-0.1,0.3-0.3,0.4c0,0,0,0,0,0c-0.1,0.2-0.3,0.3-0.6,0.3h-9.4c0.1,0.4,0.4,0.8,0.8,1.1
				c0.6,0.5,1.4,0.7,2.5,0.7h2.6l-1.4,6.3h-1.2c-1.1,0-2,0.2-2.5,0.7c-0.6,0.5-0.9,1-0.9,1.8c0,1.5,1.1,2.3,3.4,2.4l-0.9,4
				c-0.1,0.3-0.1,0.7-0.2,1.1c-0.1,0.4-0.1,0.8-0.1,1.1c0,0.6,0.2,1.2,0.7,1.6c0.2,0.2,0.4,0.3,0.6,0.4c0,0,0,0,0-0.1l2.7-10.4
				c0-0.2,0.2-0.3,0.3-0.4c0,0,0,0,0,0c0.1-0.1,0.3-0.1,0.5-0.1h10.4l1.4-6.7c0.1-0.3,0.4-0.5,0.7-0.5c0,0,0.1,0,0.1,0
				c0.4,0.1,0.6,0.4,0.6,0.7l-1.5,7.2c0,0,0,0.1,0,0.1c0,0,0,0,0,0c-0.1,0.3-0.4,0.5-0.7,0.5h-10.5l-2.5,9.9c0,0,0,0,0,0
				c1,0,1.7-0.3,2-0.8c0.3-0.5,0.6-1.4,0.9-2.6l1.2-5h5.5l-0.9,4c-0.2,0.9-0.3,1.6-0.3,2.2c0,0.6,0.2,1.2,0.7,1.6
				c0.5,0.4,1.1,0.6,2,0.6c0.7,0,1.3-0.2,1.7-0.5c0.4-0.3,0.7-0.7,0.8-1.1c0.1-0.4,0.3-1,0.5-1.8l1.2-5h3.8c1.1,0,2-0.2,2.5-0.7
				c0.6-0.4,0.8-1,0.8-1.7c0-0.7-0.3-1.3-0.8-1.8C174.4,23.1,173.5,22.9,172.4,22.9z M159.6,8.1c-1.1,0-2-0.8-2-1.7
				c0-0.9,0.9-1.7,2-1.7c1.1,0,2,0.8,2,1.7C161.5,7.3,160.7,8.1,159.6,8.1z M164.1,22.9h-5.5l1.5-6.3h5.5L164.1,22.9z M169.3,12.8
				c-0.6,0-1.2-0.5-1.2-1c0-0.6,0.5-1,1.2-1c0.6,0,1.2,0.5,1.2,1C170.5,12.3,169.9,12.8,169.3,12.8z M171.4,5.4
				c0.1-0.3,0.4-0.5,0.7-0.5c0.1,0,0.1,0,0.2,0c0.4,0.1,0.6,0.4,0.5,0.7l-1.1,4.2c-0.1,0.3-0.5,0.5-0.9,0.5
				c-0.4-0.1-0.6-0.4-0.5-0.7L171.4,5.4z M168.2,9.3l1.1-4.3c0.1-0.3,0.4-0.5,0.7-0.5c0.1,0,0.1,0,0.2,0c0.4,0.1,0.6,0.4,0.5,0.7
				l-1.1,4.2c-0.1,0.3-0.5,0.5-0.9,0.5C168.3,9.9,168.1,9.6,168.2,9.3z M168.8,15.6c-0.6,0-1.2-0.5-1.2-1c0-0.6,0.5-1,1.2-1
				c0.6,0,1.2,0.5,1.2,1C169.9,15.1,169.4,15.6,168.8,15.6z"/>
		</g>
		<linearGradient id="SVGID_2_" gradientUnits="userSpaceOnUse" x1="158.4056" y1="6.4003" x2="160.728" y2="6.4003">
			<stop  offset="0" style="stop-color:#E7E56A"/>
			<stop  offset="1" style="stop-color:#12B3B9"/>
		</linearGradient>
		<ellipse class="st1" cx="159.6" cy="6.4" rx="1.2" ry="1"/>
	</g>
</g>
<g>
	<g>
		<path class="st2" d="M64.3,16.4c0,0.2,0,0.3,0.1,0.4c0.1,0.1,0.2,0.2,0.3,0.3c0.1,0.1,0.3,0.1,0.5,0.1c0.2,0,0.3,0,0.5,0h1.6
			c0.4,0,0.6,0,0.7-0.1c0.1-0.1,0.2-0.2,0.2-0.2c0-0.1-0.1-0.2-0.2-0.2c-0.1-0.1-0.2-0.2-0.4-0.3c-0.2-0.1-0.3-0.2-0.5-0.3
			c-0.2-0.1-0.4-0.2-0.5-0.4c-0.2-0.1-0.3-0.3-0.4-0.5c-0.1-0.2-0.2-0.4-0.2-0.6c0-0.3,0.1-0.5,0.2-0.7c0.1-0.2,0.3-0.4,0.5-0.5
			s0.5-0.3,0.7-0.3c0.3-0.1,0.6-0.1,0.9-0.1c0.4,0,0.8,0.1,1.2,0.2s0.6,0.3,0.8,0.5c0,0,0,0.1,0,0.1l-0.8,0.8c0,0-0.1,0-0.1,0
			c-0.1-0.1-0.3-0.2-0.4-0.2c-0.1,0-0.3-0.1-0.4-0.1c-0.2,0-0.3,0-0.5,0.1c-0.1,0.1-0.2,0.2-0.2,0.4c0,0.1,0.1,0.3,0.2,0.4
			c0.1,0.1,0.2,0.2,0.4,0.3c0.2,0.1,0.3,0.2,0.5,0.3c0.2,0.1,0.4,0.2,0.5,0.4c0.2,0.1,0.3,0.3,0.4,0.5c0.1,0.2,0.2,0.4,0.2,0.6
			c0,0.5-0.2,0.8-0.6,1.1c-0.4,0.3-0.9,0.4-1.7,0.4h-2.4c-0.5,0-1,0-1.3-0.1c-0.4-0.1-0.7-0.2-0.9-0.4c-0.2-0.2-0.4-0.4-0.5-0.6
			c-0.1-0.2-0.2-0.5-0.2-0.8c0-0.3,0-0.5,0.1-0.9c0.1-0.3,0.2-0.6,0.4-0.8c0,0,0.1-0.1,0.2,0l1.4,0.3c0,0,0.1,0,0.1,0.1
			c0,0,0,0,0,0.1c-0.1,0.2-0.2,0.3-0.2,0.5C64.3,16,64.3,16.2,64.3,16.4z M65.1,20.2c-0.1,0-0.1,0-0.1-0.1v-1c0-0.1,0-0.1,0.1-0.1
			h1.2c0.1,0,0.1,0,0.1,0.1v1c0,0.1,0,0.1-0.1,0.1H65.1z M66.7,20.2c-0.1,0-0.1,0-0.1-0.1v-1c0-0.1,0-0.1,0.1-0.1h1.2
			c0.1,0,0.1,0,0.1,0.1v1c0,0.1,0,0.1-0.1,0.1H66.7z"/>
		<path class="st2" d="M75.2,15.9c0,0.3,0,0.5-0.1,0.7c-0.1,0.2-0.2,0.3-0.3,0.5c-0.1,0.1-0.3,0.2-0.5,0.3c-0.2,0.1-0.4,0.1-0.7,0.1
			h-2.5c-0.1,0-0.1,0-0.1-0.1v-1.1c0-0.1,0-0.1,0.1-0.1h1.6c0.2,0,0.3,0,0.4,0c0.1,0,0.2,0,0.2-0.1c0.1,0,0.1-0.1,0.1-0.2
			c0-0.1,0-0.1,0-0.2v-0.4c0-0.2-0.1-0.3-0.2-0.4c-0.1-0.1-0.3-0.1-0.6-0.1h-1.2c-0.1,0-0.1,0-0.1-0.1v-1.1c0-0.1,0-0.1,0.1-0.1h1.9
			c0.6,0,1.1,0.1,1.4,0.4c0.3,0.3,0.5,0.7,0.5,1.2V15.9z"/>
		<path class="st2" d="M78.5,17.4c-0.4,0-0.7,0-1-0.1c-0.3-0.1-0.5-0.2-0.7-0.3c-0.2-0.1-0.4-0.3-0.5-0.6c-0.1-0.2-0.2-0.5-0.2-0.9
			c0-0.4,0.1-0.7,0.2-1c0.1-0.3,0.3-0.5,0.5-0.6c0.2-0.2,0.5-0.3,0.7-0.3c0.3-0.1,0.6-0.1,0.9-0.1c0.3,0,0.6,0,0.9,0.1
			s0.5,0.2,0.8,0.3c0.2,0.1,0.4,0.4,0.5,0.6c0.1,0.3,0.2,0.6,0.2,1v0.7h0.7c0.3,0,0.4,0.2,0.4,0.6c0,0.3,0,0.4-0.1,0.5
			c-0.1,0.1-0.2,0.1-0.3,0.1h-0.7v0.1c0,0.5-0.2,1-0.5,1.2s-0.9,0.4-1.6,0.4h-1.6c-0.1,0-0.1,0-0.1-0.1v-1.1c0-0.1,0-0.1,0.1-0.1
			h1.1c0.1,0,0.3,0,0.4,0c0.1,0,0.2,0,0.3-0.1c0.1,0,0.1-0.1,0.2-0.2c0-0.1,0.1-0.2,0.1-0.3H78.5z M78.4,14.7
			c-0.2,0-0.4,0.1-0.5,0.2c-0.1,0.1-0.2,0.3-0.2,0.5c0,0.1,0,0.2,0.1,0.3c0,0.1,0.1,0.2,0.1,0.2c0.1,0.1,0.1,0.1,0.2,0.1
			c0.1,0,0.2,0,0.3,0h0.7v-0.7c0-0.3-0.1-0.4-0.2-0.5C78.8,14.8,78.6,14.7,78.4,14.7z"/>
		<path class="st2" d="M81.5,17.4c-0.1,0-0.2,0-0.3-0.1c-0.1-0.1-0.1-0.2-0.1-0.5c0-0.2,0-0.4,0.1-0.5c0.1-0.1,0.2-0.2,0.3-0.2H83
			c0.1,0,0.2,0.1,0.3,0.2c0.1,0.1,0.1,0.3,0.1,0.5c0,0.3,0,0.4-0.1,0.5c-0.1,0.1-0.2,0.1-0.3,0.1H81.5z"/>
		<path class="st2" d="M89,16.1c0.3,0,0.4,0.2,0.4,0.6c0,0.2,0,0.4-0.1,0.5c-0.1,0.1-0.2,0.2-0.3,0.2h-1.7c-0.2,0-0.5,0-0.7-0.1
			c-0.2,0-0.4-0.1-0.6-0.2c-0.2,0.1-0.5,0.2-0.7,0.2c-0.2,0-0.5,0.1-0.7,0.1H83c-0.1,0-0.2,0-0.3-0.1c-0.1-0.1-0.1-0.2-0.1-0.5
			c0-0.4,0.1-0.6,0.4-0.6h0.9c0.1,0,0.2,0,0.4,0c0.1,0,0.3,0,0.4,0c-0.1-0.2-0.3-0.4-0.5-0.5c-0.2-0.1-0.4-0.3-0.6-0.4
			c-0.1,0-0.1-0.1-0.1-0.2c0-0.1,0-0.2,0-0.2v-0.6c0-0.1,0.1-0.2,0.2-0.2c0.2-0.1,0.4-0.1,0.6-0.2c0.2-0.1,0.5-0.1,0.8-0.1
			c0.3,0,0.6-0.1,0.9-0.1c0.4,0,0.8,0,1.1,0.1c0.3,0.1,0.6,0.2,0.8,0.3c0.2,0.1,0.4,0.3,0.4,0.4c0.1,0.2,0.1,0.3,0.1,0.5
			c0,0.1,0,0.3-0.1,0.4c-0.1,0.1-0.1,0.2-0.2,0.4c-0.1,0.1-0.2,0.2-0.3,0.3c-0.1,0.1-0.2,0.2-0.3,0.2c0.1,0,0.2,0,0.3,0s0.2,0,0.3,0
			H89z M86,16c0.5-0.2,0.7-0.5,0.7-0.8c0-0.1-0.1-0.2-0.2-0.3c-0.1-0.1-0.3-0.1-0.6-0.1c-0.2,0-0.4,0-0.5,0c-0.1,0-0.2,0.1-0.3,0.1
			c0.2,0.2,0.4,0.3,0.6,0.6C85.9,15.6,86,15.8,86,16z"/>
		<path class="st2" d="M89.1,17.4c-0.1,0-0.2,0-0.3-0.1c-0.1-0.1-0.1-0.2-0.1-0.5c0-0.2,0-0.4,0.1-0.5c0.1-0.1,0.2-0.2,0.3-0.2h1.4
			c0.1,0,0.2,0.1,0.3,0.2c0.1,0.1,0.1,0.3,0.1,0.5c0,0.3,0,0.4-0.1,0.5c-0.1,0.1-0.2,0.1-0.3,0.1H89.1z"/>
		<path class="st2" d="M98.7,15.7c0,0.1,0.1,0.2,0.2,0.3c0.1,0.1,0.3,0.1,0.5,0.1h0.3c0.3,0,0.4,0.2,0.4,0.6c0,0.4-0.1,0.6-0.4,0.6
			c-0.2,0-0.5,0-0.7-0.1c-0.2-0.1-0.3-0.2-0.5-0.4c-0.1,0.2-0.3,0.3-0.5,0.4c-0.2,0.1-0.5,0.1-0.8,0.1h-0.3c-0.3,0-0.5,0-0.7-0.1
			c-0.2-0.1-0.3-0.2-0.4-0.3c-0.1,0.2-0.2,0.3-0.5,0.4c-0.2,0.1-0.5,0.1-0.8,0.1h-0.3c-0.3,0-0.5,0-0.7-0.1
			c-0.2-0.1-0.3-0.2-0.4-0.3c-0.1,0.2-0.2,0.3-0.4,0.4c-0.2,0.1-0.5,0.1-0.8,0.1h-1.3c-0.1,0-0.1,0-0.2,0c0,0-0.1,0-0.1-0.1
			c0,0-0.1-0.1-0.1-0.2c0-0.1,0-0.2,0-0.3c0-0.2,0-0.4,0.1-0.5c0.1-0.1,0.2-0.2,0.3-0.2h0.5c0.2,0,0.3,0,0.4-0.1s0.1-0.2,0.1-0.5
			v-1.2c0-0.1,0-0.1,0.1-0.1h1.5c0.1,0,0.1,0,0.1,0.1v1.4c0,0.2,0,0.3,0.1,0.3c0.1,0.1,0.2,0.1,0.4,0.1c0.2,0,0.4,0,0.4-0.1
			c0.1-0.1,0.1-0.2,0.1-0.4v-1.3c0-0.1,0-0.1,0.1-0.1h1.5c0.1,0,0.1,0,0.1,0.1v1.4c0,0.2,0,0.3,0.1,0.4c0.1,0.1,0.2,0.1,0.4,0.1
			c0.2,0,0.3,0,0.4-0.1c0.1-0.1,0.1-0.2,0.1-0.4v-1.9c0-0.1,0-0.1,0.1-0.1h1.5c0.1,0,0.1,0,0.1,0.1V15.7z"/>
		<path class="st2" d="M99.7,17.4c-0.1,0-0.2,0-0.3-0.1c-0.1-0.1-0.1-0.2-0.1-0.5c0-0.2,0-0.4,0.1-0.5c0.1-0.1,0.2-0.2,0.3-0.2h1.4
			c0.1,0,0.2,0.1,0.3,0.2c0.1,0.1,0.1,0.3,0.1,0.5c0,0.3,0,0.4-0.1,0.5c-0.1,0.1-0.2,0.1-0.3,0.1H99.7z"/>
		<path class="st2" d="M101.2,17.4c-0.1,0-0.2,0-0.3-0.1c-0.1-0.1-0.1-0.3-0.1-0.5c0-0.2,0-0.4,0.1-0.5c0.1-0.1,0.2-0.1,0.3-0.1h0.2
			c0.2,0,0.3,0,0.4-0.1c0.1-0.1,0.1-0.2,0.1-0.4v-4.2c0-0.1,0-0.1,0.1-0.1h1.5c0.1,0,0.1,0,0.1,0.1v4.8c0,0.4-0.1,0.7-0.3,0.8
			c-0.2,0.2-0.5,0.3-0.9,0.3H101.2z"/>
		<path class="st2" d="M106.4,17.3c0,0.1,0,0.1-0.1,0.1h-1.5c-0.1,0-0.1,0-0.1-0.1v-5.8c0-0.1,0-0.1,0.1-0.1h1.5
			c0.1,0,0.1,0,0.1,0.1V17.3z"/>
		<path class="st2" d="M110.3,14.7c-0.1,0-0.1,0-0.1-0.1v-1.1c0-0.1,0-0.1,0.1-0.1h1.9c0.6,0,1.1,0.1,1.4,0.4
			c0.3,0.3,0.5,0.7,0.5,1.2v0.6c0,0,0,0.1,0.1,0.2c0,0.1,0.1,0.1,0.1,0.2c0,0,0.1,0.1,0.2,0.1c0.1,0,0.2,0,0.3,0h0.3
			c0.3,0,0.4,0.2,0.4,0.6c0,0.2,0,0.4-0.1,0.5c-0.1,0.1-0.2,0.2-0.3,0.2c-0.3,0-0.5,0-0.7-0.1c-0.2-0.1-0.4-0.2-0.5-0.4
			c-0.1,0.2-0.3,0.3-0.5,0.4c-0.2,0.1-0.5,0.1-0.8,0.1h-2.5c-0.1,0-0.1,0-0.1-0.1v-1.1c0-0.1,0-0.1,0.1-0.1h1.6c0.2,0,0.3,0,0.4,0
			c0.1,0,0.2-0.1,0.2-0.1c0,0,0.1-0.1,0.1-0.2c0-0.1,0-0.2,0-0.3v-0.3c0-0.2-0.1-0.3-0.2-0.4c-0.1-0.1-0.3-0.1-0.6-0.1H110.3z"/>
		<path class="st2" d="M115,17.4c-0.1,0-0.2,0-0.3-0.1c-0.1-0.1-0.1-0.2-0.1-0.5c0-0.2,0-0.4,0.1-0.5c0.1-0.1,0.2-0.2,0.3-0.2h1.4
			c0.1,0,0.2,0.1,0.3,0.2c0.1,0.1,0.1,0.3,0.1,0.5c0,0.3,0,0.4-0.1,0.5c-0.1,0.1-0.2,0.1-0.3,0.1H115z"/>
		<path class="st2" d="M116.5,17.4c-0.1,0-0.2,0-0.3-0.1c-0.1-0.1-0.1-0.2-0.1-0.5c0-0.2,0-0.4,0.1-0.5c0.1-0.1,0.2-0.2,0.3-0.2h1.4
			c0.1,0,0.2,0.1,0.3,0.2c0.1,0.1,0.1,0.3,0.1,0.5c0,0.3,0,0.4-0.1,0.5c-0.1,0.1-0.2,0.1-0.3,0.1H116.5z"/>
		<path class="st2" d="M118.1,17.4c-0.1,0-0.2,0-0.3-0.1c-0.1-0.1-0.1-0.2-0.1-0.5c0-0.2,0-0.4,0.1-0.5c0.1-0.1,0.2-0.2,0.3-0.2h1.4
			c0.1,0,0.2,0.1,0.3,0.2c0.1,0.1,0.1,0.3,0.1,0.5c0,0.3,0,0.4-0.1,0.5c-0.1,0.1-0.2,0.1-0.3,0.1H118.1z"/>
		<path class="st2" d="M119.5,17.4c-0.1,0-0.2,0-0.3-0.1c-0.1-0.1-0.1-0.3-0.1-0.5s0-0.4,0.1-0.5c0.1-0.1,0.2-0.1,0.3-0.1h0.2
			c0.2,0,0.3,0,0.4-0.1c0.1-0.1,0.1-0.2,0.1-0.4v-2c0-0.1,0-0.1,0.1-0.1h1.5c0.1,0,0.1,0,0.1,0.1v2.6c0,0.4-0.1,0.7-0.3,0.8
			c-0.2,0.2-0.5,0.3-0.9,0.3H119.5z M120.3,12.7c-0.1,0-0.1,0-0.1-0.1v-1c0-0.1,0-0.1,0.1-0.1h1.5c0.1,0,0.1,0,0.1,0.1v1
			c0,0.1,0,0.1-0.1,0.1H120.3z"/>
		<path class="st2" d="M123.6,13.7c0-0.1,0-0.1,0.1-0.1h1.5c0.1,0,0.1,0,0.1,0.1v2c0,0.1,0.1,0.2,0.2,0.3c0.1,0.1,0.3,0.1,0.5,0.1
			h0.3c0.3,0,0.4,0.2,0.4,0.6c0,0.2,0,0.4-0.1,0.5c-0.1,0.1-0.2,0.2-0.3,0.2c-0.2,0-0.4,0-0.6-0.1c-0.2,0-0.3-0.1-0.4-0.2v0.1
			c0,0.7-0.2,1.2-0.5,1.5c-0.3,0.3-0.9,0.5-1.6,0.5h-0.6c-0.1,0-0.1,0-0.1-0.1v-1.1c0-0.1,0-0.1,0.1-0.1h0.2c0.3,0,0.5-0.1,0.6-0.2
			c0.1-0.2,0.1-0.4,0.1-0.7V13.7z"/>
		<path class="st2" d="M126.3,17.4c-0.1,0-0.2,0-0.3-0.1c-0.1-0.1-0.1-0.2-0.1-0.5c0-0.2,0-0.4,0.1-0.5c0.1-0.1,0.2-0.2,0.3-0.2h1.4
			c0.1,0,0.2,0.1,0.3,0.2c0.1,0.1,0.1,0.3,0.1,0.5c0,0.3,0,0.4-0.1,0.5c-0.1,0.1-0.2,0.1-0.3,0.1H126.3z"/>
		<path class="st2" d="M128.9,13.7c0-0.1,0-0.1,0.1-0.1h1.5c0.1,0,0.1,0,0.1,0.1v2c0,0.1,0.1,0.2,0.2,0.3c0.1,0.1,0.3,0.1,0.5,0.1
			h0.3c0.3,0,0.4,0.2,0.4,0.6c0,0.2,0,0.4-0.1,0.5c-0.1,0.1-0.2,0.2-0.3,0.2c-0.3,0-0.5,0-0.7-0.1c-0.2-0.1-0.3-0.2-0.5-0.4
			c-0.1,0.1-0.1,0.2-0.2,0.2c-0.1,0.1-0.2,0.1-0.3,0.1c-0.1,0-0.3,0-0.4,0.1c-0.2,0-0.3,0-0.5,0h-1.1c-0.1,0-0.2,0-0.3-0.1
			c-0.1-0.1-0.1-0.3-0.1-0.5c0-0.2,0-0.4,0.1-0.5c0.1-0.1,0.2-0.1,0.3-0.1h0.6c0.2,0,0.3,0,0.4-0.1c0.1-0.1,0.1-0.2,0.1-0.5V13.7z
			 M128.3,12.7c-0.1,0-0.1,0-0.1-0.1v-1c0-0.1,0-0.1,0.1-0.1h1.2c0.1,0,0.1,0,0.1,0.1v1c0,0.1,0,0.1-0.1,0.1H128.3z M130,12.7
			c-0.1,0-0.1,0-0.1-0.1v-1c0-0.1,0-0.1,0.1-0.1h1.2c0.1,0,0.1,0,0.1,0.1v1c0,0.1,0,0.1-0.1,0.1H130z"/>
		<path class="st2" d="M131.6,17.4c-0.1,0-0.2,0-0.3-0.1c-0.1-0.1-0.1-0.2-0.1-0.5c0-0.2,0-0.4,0.1-0.5c0.1-0.1,0.2-0.2,0.3-0.2h1.4
			c0.1,0,0.2,0.1,0.3,0.2c0.1,0.1,0.1,0.3,0.1,0.5c0,0.3,0,0.4-0.1,0.5c-0.1,0.1-0.2,0.1-0.3,0.1H131.6z"/>
		<path class="st2" d="M133.2,17.4c-0.1,0-0.2,0-0.3-0.1c-0.1-0.1-0.1-0.2-0.1-0.5c0-0.2,0-0.4,0.1-0.5c0.1-0.1,0.2-0.2,0.3-0.2h1.4
			c0.1,0,0.2,0.1,0.3,0.2c0.1,0.1,0.1,0.3,0.1,0.5c0,0.3,0,0.4-0.1,0.5c-0.1,0.1-0.2,0.1-0.3,0.1H133.2z"/>
		<path class="st2" d="M134.7,17.4c-0.1,0-0.2,0-0.3-0.1c-0.1-0.1-0.1-0.2-0.1-0.5c0-0.2,0-0.4,0.1-0.5c0.1-0.1,0.2-0.2,0.3-0.2h1.4
			c0.1,0,0.2,0.1,0.3,0.2c0.1,0.1,0.1,0.3,0.1,0.5c0,0.3,0,0.4-0.1,0.5c-0.1,0.1-0.2,0.1-0.3,0.1H134.7z"/>
		<path class="st2" d="M136.1,17.4c-0.1,0-0.2,0-0.3-0.1c-0.1-0.1-0.1-0.3-0.1-0.5c0-0.2,0-0.4,0.1-0.5c0.1-0.1,0.2-0.1,0.3-0.1h0.2
			c0.2,0,0.3,0,0.4-0.1c0.1-0.1,0.1-0.2,0.1-0.4v-4.2c0-0.1,0-0.1,0.1-0.1h1.5c0.1,0,0.1,0,0.1,0.1v4.8c0,0.4-0.1,0.7-0.3,0.8
			c-0.2,0.2-0.5,0.3-0.9,0.3H136.1z"/>
		<path class="st2" d="M141.4,17.3c0,0.1,0,0.1-0.1,0.1h-1.5c-0.1,0-0.1,0-0.1-0.1v-5.8c0-0.1,0-0.1,0.1-0.1h1.5
			c0.1,0,0.1,0,0.1,0.1V17.3z"/>
		<path class="st2" d="M61.9,22.1C62,22,62,22,62.1,22h1.7c0.1,0,0.1,0,0.1,0.1l2.3,5.8c0,0.1,0,0.1-0.1,0.1h-1.7
			c-0.1,0-0.1,0-0.1-0.1L64,27h-2.2l-0.3,0.9c0,0.1-0.1,0.1-0.1,0.1h-1.7c-0.1,0-0.1,0-0.1-0.1L61.9,22.1z M63.5,25.7l-0.6-1.9h0
			l-0.7,1.9H63.5z"/>
		<path class="st2" d="M66.9,22.1c0-0.1,0-0.1,0.1-0.1h1.6c0.1,0,0.1,0,0.1,0.1v4.5c0,0,0,0.1,0.1,0.1h2.9c0.1,0,0.1,0,0.1,0.1v1.2
			c0,0.1,0,0.1-0.1,0.1H67c-0.1,0-0.1,0-0.1-0.1V22.1z"/>
		<path class="st2" d="M73.1,28L73.1,28C73,28,73,28,73.1,28c-0.1,0-0.1,0-0.1-0.1v0v-4.5c0,0,0,0-0.1-0.1h0h-1.7h0c0,0,0,0,0,0l0,0
			l0,0c0,0,0,0,0-0.1v-1.2c0,0,0-0.1,0.1-0.1h0h5.3c0,0,0.1,0,0.1,0l0,0c0,0,0,0,0,0v1.2c0,0,0,0.1,0,0.1c0,0,0,0-0.1,0h0h-1.7
			c0,0,0,0,0,0l0,0v0v4.5v0c0,0,0,0-0.1,0.1c0,0,0,0-0.1,0H73.1z"/>
		<path class="st2" d="M81,28c-0.1,0-0.1,0-0.2-0.1l-1-2h-0.7c0,0-0.1,0-0.1,0.1v2c0,0.1,0,0.1-0.1,0.1h-1.6c-0.1,0-0.1,0-0.1-0.1
			v-5.8c0-0.1,0-0.1,0.1-0.1h2.8c0.4,0,0.7,0,1.1,0.1c0.3,0.1,0.6,0.2,0.8,0.4c0.2,0.2,0.4,0.4,0.5,0.6c0.1,0.2,0.2,0.5,0.2,0.8
			c0,0.4-0.1,0.7-0.3,1c-0.2,0.3-0.5,0.5-0.8,0.7l1.3,2.3c0,0,0,0.1,0,0.1c0,0,0,0-0.1,0H81z M80.1,24.6c0.3,0,0.5-0.1,0.6-0.2
			c0.1-0.1,0.2-0.3,0.2-0.5c0-0.2-0.1-0.3-0.2-0.5c-0.1-0.1-0.3-0.2-0.6-0.2h-1c0,0-0.1,0-0.1,0.1v1.2c0,0,0,0.1,0.1,0.1H80.1z"/>
		<path class="st2" d="M83.7,22.1c0-0.1,0-0.1,0.1-0.1h4.5c0.1,0,0.1,0,0.1,0.1v1.1c0,0.1,0,0.1-0.1,0.1h-2.8c0,0-0.1,0-0.1,0.1v0.9
			c0,0,0,0.1,0.1,0.1h2.3c0.1,0,0.1,0,0.1,0.1v1.1c0,0.1,0,0.1-0.1,0.1h-2.3c0,0-0.1,0-0.1,0.1v1c0,0,0,0.1,0.1,0.1h2.8
			c0.1,0,0.1,0,0.1,0.1v1.1c0,0.1,0,0.1-0.1,0.1h-4.5c-0.1,0-0.1,0-0.1-0.1V22.1z"/>
		<path class="st2" d="M89.3,22.1c0-0.1,0-0.1,0.1-0.1h1.5c0.1,0,0.1,0,0.2,0.1l2.1,3.4h0v-3.4c0-0.1,0-0.1,0.1-0.1h1.4
			c0.1,0,0.1,0,0.1,0.1v5.8c0,0.1,0,0.1-0.1,0.1h-1.5c-0.1,0-0.1,0-0.2-0.1L91,24.5h-0.1v3.4c0,0.1,0,0.1-0.1,0.1h-1.4
			c-0.1,0-0.1,0-0.1-0.1V22.1z"/>
		<path class="st2" d="M95.9,22.1c0-0.1,0-0.1,0.1-0.1h2.7c0.6,0,1.1,0.1,1.6,0.3c0.4,0.2,0.7,0.6,0.9,1c0,0.1,0.1,0.2,0.1,0.3
			c0,0.1,0,0.2,0.1,0.3c0,0.1,0,0.3,0,0.4c0,0.2,0,0.4,0,0.6c0,0.2,0,0.4,0,0.6c0,0.2,0,0.3,0,0.4c0,0.1,0,0.2-0.1,0.3
			c0,0.1-0.1,0.2-0.1,0.3c-0.2,0.5-0.5,0.8-0.9,1c-0.4,0.2-0.9,0.3-1.6,0.3H96c-0.1,0-0.1,0-0.1-0.1V22.1z M97.7,26.5
			C97.7,26.6,97.7,26.6,97.7,26.5l0.6,0.1c0.3,0,0.6,0,0.7-0.1c0.2-0.1,0.3-0.2,0.4-0.4c0,0,0-0.1,0-0.1c0-0.1,0-0.1,0-0.2
			c0-0.1,0-0.2,0-0.3c0-0.1,0-0.3,0-0.4c0-0.2,0-0.3,0-0.4c0-0.1,0-0.2,0-0.3c0-0.1,0-0.1,0-0.2c0,0,0-0.1,0-0.1
			c-0.1-0.2-0.2-0.4-0.4-0.4c-0.2-0.1-0.4-0.1-0.7-0.1h-0.5c0,0-0.1,0-0.1,0.1V26.5z"/>
		<path class="st2" d="M103.9,22.1c0-0.1,0.1-0.1,0.1-0.1h1.7c0.1,0,0.1,0,0.1,0.1l2.3,5.8c0,0.1,0,0.1-0.1,0.1h-1.7
			c-0.1,0-0.1,0-0.1-0.1L106,27h-2.2l-0.3,0.9c0,0.1-0.1,0.1-0.1,0.1h-1.7c-0.1,0-0.1,0-0.1-0.1L103.9,22.1z M105.5,25.7l-0.6-1.9h0
			l-0.7,1.9H105.5z"/>
		<path class="st2" d="M108.8,22.1c0-0.1,0-0.1,0.1-0.1h1.6c0.1,0,0.1,0,0.1,0.1v4.5c0,0,0,0.1,0.1,0.1h2.9c0.1,0,0.1,0,0.1,0.1v1.2
			c0,0.1,0,0.1-0.1,0.1h-4.7c-0.1,0-0.1,0-0.1-0.1V22.1z"/>
		<path class="st2" d="M116.9,28.1c-0.3,0-0.6,0-0.8-0.1c-0.3,0-0.5-0.1-0.8-0.2c-0.2-0.1-0.5-0.2-0.7-0.3c-0.2-0.1-0.4-0.2-0.5-0.3
			c-0.1,0-0.1-0.1,0-0.1l0.9-0.9c0,0,0.1,0,0.1,0c0.2,0.2,0.5,0.3,0.8,0.4c0.3,0.1,0.6,0.2,1,0.2c0.3,0,0.6-0.1,0.7-0.2
			c0.2-0.1,0.2-0.2,0.2-0.4c0-0.1-0.1-0.2-0.2-0.3c-0.1-0.1-0.4-0.1-0.7-0.2l-0.4,0c-0.7-0.1-1.3-0.3-1.7-0.6
			c-0.4-0.3-0.6-0.7-0.6-1.3c0-0.3,0.1-0.5,0.2-0.8c0.1-0.2,0.3-0.4,0.5-0.6c0.2-0.2,0.5-0.3,0.8-0.4c0.3-0.1,0.7-0.1,1.1-0.1
			c0.5,0,0.9,0.1,1.4,0.2c0.4,0.1,0.8,0.3,1.1,0.5c0.1,0,0.1,0.1,0,0.1l-0.8,1c0,0-0.1,0.1-0.1,0c-0.2-0.1-0.5-0.3-0.7-0.3
			c-0.3-0.1-0.5-0.1-0.8-0.1c-0.3,0-0.4,0-0.6,0.1c-0.1,0.1-0.2,0.2-0.2,0.4c0,0.1,0.1,0.2,0.2,0.3c0.1,0.1,0.4,0.1,0.7,0.2l0.4,0
			c0.8,0.1,1.3,0.3,1.7,0.6c0.4,0.3,0.6,0.7,0.6,1.3c0,0.3-0.1,0.5-0.2,0.8c-0.1,0.2-0.3,0.4-0.5,0.6c-0.2,0.2-0.5,0.3-0.9,0.4
			C117.8,28,117.4,28.1,116.9,28.1z"/>
		<path class="st2" d="M122.4,22.1c0-0.1,0.1-0.1,0.1-0.1h1.7c0.1,0,0.1,0,0.1,0.1l2.3,5.8c0,0.1,0,0.1-0.1,0.1h-1.7
			c-0.1,0-0.1,0-0.1-0.1l-0.3-0.9h-2.2l-0.3,0.9c0,0.1-0.1,0.1-0.1,0.1h-1.7c-0.1,0-0.1,0-0.1-0.1L122.4,22.1z M124,25.7l-0.6-1.9h0
			l-0.7,1.9H124z"/>
		<path class="st2" d="M129.7,28.1c-0.4,0-0.8-0.1-1.1-0.2c-0.3-0.1-0.6-0.3-0.9-0.5c-0.2-0.2-0.4-0.5-0.6-0.8
			c-0.1-0.3-0.2-0.7-0.2-1.1v-3.6c0-0.1,0-0.1,0.1-0.1h1.6c0.1,0,0.1,0,0.1,0.1v3.7c0,0.3,0.1,0.5,0.3,0.7c0.2,0.2,0.4,0.2,0.7,0.2
			c0.3,0,0.5-0.1,0.7-0.2c0.2-0.2,0.2-0.4,0.2-0.7v-3.7c0-0.1,0-0.1,0.1-0.1h1.6c0.1,0,0.1,0,0.1,0.1v3.6c0,0.4-0.1,0.8-0.2,1.1
			c-0.1,0.3-0.3,0.6-0.6,0.8c-0.2,0.2-0.5,0.4-0.9,0.5C130.5,28,130.2,28.1,129.7,28.1z"/>
		<path class="st2" d="M133.6,22.1c0-0.1,0-0.1,0.1-0.1h2.7c0.6,0,1.1,0.1,1.6,0.3c0.4,0.2,0.7,0.6,0.9,1c0,0.1,0.1,0.2,0.1,0.3
			c0,0.1,0,0.2,0.1,0.3c0,0.1,0,0.3,0,0.4c0,0.2,0,0.4,0,0.6c0,0.2,0,0.4,0,0.6c0,0.2,0,0.3,0,0.4c0,0.1,0,0.2-0.1,0.3
			c0,0.1-0.1,0.2-0.1,0.3c-0.2,0.5-0.5,0.8-0.9,1S137,28,136.3,28h-2.7c-0.1,0-0.1,0-0.1-0.1V22.1z M135.4,26.5
			C135.4,26.6,135.4,26.6,135.4,26.5l0.6,0.1c0.3,0,0.6,0,0.7-0.1c0.2-0.1,0.3-0.2,0.4-0.4c0,0,0-0.1,0-0.1c0-0.1,0-0.1,0-0.2
			c0-0.1,0-0.2,0-0.3c0-0.1,0-0.3,0-0.4c0-0.2,0-0.3,0-0.4c0-0.1,0-0.2,0-0.3c0-0.1,0-0.1,0-0.2c0,0,0-0.1,0-0.1
			c-0.1-0.2-0.2-0.4-0.4-0.4c-0.2-0.1-0.4-0.1-0.7-0.1h-0.5c0,0-0.1,0-0.1,0.1V26.5z"/>
		<path class="st2" d="M140,22.1c0-0.1,0-0.1,0.1-0.1h1.6c0.1,0,0.1,0,0.1,0.1v5.8c0,0.1,0,0.1-0.1,0.1h-1.6c-0.1,0-0.1,0-0.1-0.1
			V22.1z"/>
	</g>
</g>
</svg>
