<svg id="Layer_1" data-name="Layer 1" xmlns="http://www.w3.org/2000/svg" xmlns:xlink="http://www.w3.org/1999/xlink" viewBox="0 0 129.36 42.02"><defs><style>.cls-1{fill:#0f4320;}.cls-2{fill:url(#New_Gradient_Swatch_copy_2);}.cls-3{fill:url(#New_Gradient_Swatch_copy_2-2);}</style><linearGradient id="New_Gradient_Swatch_copy_2" x1="139" y1="20.99" x2="174" y2="20.99" gradientUnits="userSpaceOnUse"><stop offset="0" stop-color="#e7e56a"/><stop offset="1" stop-color="#12b3b9"/></linearGradient><linearGradient id="New_Gradient_Swatch_copy_2-2" x1="107.08" y1="3.9" x2="110.06" y2="3.9" xlink:href="#New_Gradient_Swatch_copy_2"/></defs><path class="cls-1" d="M49.49,17.59a.74.74,0,0,0,.14.46.92.92,0,0,0,.35.26,1.74,1.74,0,0,0,.46.13,2.77,2.77,0,0,0,.49,0h1.61a1.71,1.71,0,0,0,.74-.11c.12-.08.19-.16.19-.25s-.06-.17-.17-.26a3.1,3.1,0,0,0-.4-.26l-.52-.3a3.39,3.39,0,0,1-.53-.38,1.92,1.92,0,0,1-.4-.5,1.25,1.25,0,0,1-.16-.65,1.41,1.41,0,0,1,.19-.74,1.77,1.77,0,0,1,.53-.56,2.55,2.55,0,0,1,.75-.33,3.37,3.37,0,0,1,.9-.12,3.61,3.61,0,0,1,1.2.18,1.94,1.94,0,0,1,.82.48s0,.08,0,.12l-.79.79a.12.12,0,0,1-.15,0,1.38,1.38,0,0,0-.42-.21,1.61,1.61,0,0,0-.44-.06,1,1,0,0,0-.49.12.39.39,0,0,0-.22.37.51.51,0,0,0,.17.37,3.21,3.21,0,0,0,.43.33l.56.33a3.58,3.58,0,0,1,.55.38,2.08,2.08,0,0,1,.43.46,1.08,1.08,0,0,1,.17.6,1.3,1.3,0,0,1-.58,1.11,3.14,3.14,0,0,1-1.73.4H50.72a5.55,5.55,0,0,1-1.38-.15,2.5,2.5,0,0,1-.93-.41,1.6,1.6,0,0,1-.53-.66,2,2,0,0,1-.18-.86,3.53,3.53,0,0,1,.13-.87,3,3,0,0,1,.38-.87s.09-.05.17,0l1.39.33s.07,0,.07.05a.08.08,0,0,1,0,.08,3.37,3.37,0,0,0-.24.54A2,2,0,0,0,49.49,17.59Zm.8,3.87c-.07,0-.1,0-.1-.09v-1c0-.06,0-.09.1-.09H51.5c.07,0,.11,0,.11.09v1c0,.06,0,.09-.11.09Zm1.71,0c-.07,0-.1,0-.1-.09v-1c0-.06,0-.09.1-.09h1.22c.07,0,.1,0,.1.09v1c0,.06,0,.09-.1.09Z" transform="translate(-44.64 0.02)"/><path class="cls-1" d="M60.67,17a2.18,2.18,0,0,1-.1.73,1.18,1.18,0,0,1-.31.48,1.2,1.2,0,0,1-.5.26,2.93,2.93,0,0,1-.7.08h-2.6c-.07,0-.11,0-.11-.09V17.4c0-.06,0-.09.11-.09h1.67a2,2,0,0,0,.39,0,.51.51,0,0,0,.21-.09.22.22,0,0,0,.1-.15.9.9,0,0,0,0-.24v-.37a.48.48,0,0,0-.19-.44,1.26,1.26,0,0,0-.62-.12H56.86c-.07,0-.1,0-.1-.09v-1.1c0-.06,0-.09.1-.09H58.8a2.09,2.09,0,0,1,1.4.4,1.52,1.52,0,0,1,.47,1.23Z" transform="translate(-44.64 0.02)"/><path class="cls-1" d="M64,18.59a5.55,5.55,0,0,1-1-.09,2,2,0,0,1-.76-.3,1.43,1.43,0,0,1-.48-.58,2.5,2.5,0,0,1-.16-.93,2.2,2.2,0,0,1,.21-1,1.83,1.83,0,0,1,.54-.65,2,2,0,0,1,.76-.34,3.8,3.8,0,0,1,.89-.1,4.43,4.43,0,0,1,.9.09,2.25,2.25,0,0,1,.78.32,1.68,1.68,0,0,1,.54.63,2.13,2.13,0,0,1,.21,1v.68h.72c.27,0,.41.21.41.63a.88.88,0,0,1-.1.52.35.35,0,0,1-.31.13H66.4v.15A1.61,1.61,0,0,1,65.9,20a2.43,2.43,0,0,1-1.65.45H62.62c-.07,0-.1,0-.1-.09V19.26c0-.06,0-.09.1-.09h1.54a.66.66,0,0,0,.27-.09.37.37,0,0,0,.17-.18.63.63,0,0,0,.08-.3Zm0-2.73a.7.7,0,0,0-.54.2.82.82,0,0,0-.17.56.84.84,0,0,0,0,.34.57.57,0,0,0,.15.21.49.49,0,0,0,.23.11,1.36,1.36,0,0,0,.29,0h.68v-.73a.63.63,0,0,0-.69-.72Z" transform="translate(-44.64 0.02)"/><path class="cls-1" d="M67.17,18.59a.35.35,0,0,1-.3-.12.78.78,0,0,1-.1-.48,1.15,1.15,0,0,1,.09-.53.33.33,0,0,1,.31-.15h1.44a.35.35,0,0,1,.31.15A1,1,0,0,1,69,18a.93.93,0,0,1-.1.51.39.39,0,0,1-.32.12Z" transform="translate(-44.64 0.02)"/><path class="cls-1" d="M74.81,17.31c.27,0,.41.21.41.64a.89.89,0,0,1-.1.47.33.33,0,0,1-.31.17H73.07a4.17,4.17,0,0,1-.71-.06,2.06,2.06,0,0,1-.63-.22,2.68,2.68,0,0,1-.73.22,4.6,4.6,0,0,1-.69.06H68.66a.37.37,0,0,1-.31-.14.87.87,0,0,1-.1-.49c0-.44.14-.65.41-.65H70a3.77,3.77,0,0,0,.44,0,1.7,1.7,0,0,0-.5-.56,6.45,6.45,0,0,0-.64-.42.23.23,0,0,1-.12-.19,1.12,1.12,0,0,1,0-.24v-.62q0-.12.24-.24a4.69,4.69,0,0,1,.61-.21,8.29,8.29,0,0,1,.83-.15c.31,0,.6-.05.9-.05a4.91,4.91,0,0,1,1.16.11,2.57,2.57,0,0,1,.8.3,1.19,1.19,0,0,1,.45.44,1.08,1.08,0,0,1,.15.55,1.15,1.15,0,0,1-.08.41,1.31,1.31,0,0,1-.21.36,2.09,2.09,0,0,1-.29.31,2.43,2.43,0,0,1-.32.24h1.42Zm-3-.15c.47-.25.7-.53.7-.83A.41.41,0,0,0,72.3,16a1,1,0,0,0-.57-.13,2.65,2.65,0,0,0-.53.05,1.33,1.33,0,0,0-.31.09,2,2,0,0,1,.59.57A3,3,0,0,1,71.78,17.16Z" transform="translate(-44.64 0.02)"/><path class="cls-1" d="M74.86,18.59a.35.35,0,0,1-.3-.12.87.87,0,0,1-.09-.48,1.33,1.33,0,0,1,.08-.53.33.33,0,0,1,.31-.15H76.3a.34.34,0,0,1,.31.15,1,1,0,0,1,.11.5.84.84,0,0,1-.1.51.39.39,0,0,1-.32.12Z" transform="translate(-44.64 0.02)"/><path class="cls-1" d="M84.71,16.87a.37.37,0,0,0,.19.31,1,1,0,0,0,.54.13h.29c.28,0,.41.21.41.64s-.13.64-.41.64a2.22,2.22,0,0,1-.67-.09,1,1,0,0,1-.49-.36.8.8,0,0,1-.48.36,3,3,0,0,1-.83.09h-.35a1.54,1.54,0,0,1-.71-.14,1.24,1.24,0,0,1-.4-.34.69.69,0,0,1-.46.39,3.27,3.27,0,0,1-.86.09h-.36a1.6,1.6,0,0,1-.71-.14,1.15,1.15,0,0,1-.4-.35.7.7,0,0,1-.45.39,2.77,2.77,0,0,1-.86.1H76.35l-.15,0a.31.31,0,0,1-.13-.06.38.38,0,0,1-.09-.18,1,1,0,0,1,0-.34,1,1,0,0,1,.1-.52.33.33,0,0,1,.31-.16h.57c.2,0,.32,0,.37-.14a1,1,0,0,0,.08-.49V15.41c0-.06,0-.09.11-.09H79c.07,0,.11,0,.11.09v1.45a.41.41,0,0,0,.12.35.59.59,0,0,0,.39.1.55.55,0,0,0,.43-.13.76.76,0,0,0,.08-.43V15.41c0-.06,0-.09.11-.09h1.56c.06,0,.1,0,.1.09v1.43a.41.41,0,0,0,.14.37.75.75,0,0,0,.39.1c.21,0,.35,0,.4-.13a.8.8,0,0,0,.09-.44V14.81c0-.06,0-.09.1-.09h1.56c.07,0,.1,0,.1.09Z" transform="translate(-44.64 0.02)"/><path class="cls-1" d="M85.78,18.59a.35.35,0,0,1-.3-.12.87.87,0,0,1-.09-.48,1.33,1.33,0,0,1,.08-.53.34.34,0,0,1,.31-.15h1.44a.37.37,0,0,1,.32.15,1.07,1.07,0,0,1,.1.5.84.84,0,0,1-.1.51.39.39,0,0,1-.32.12Z" transform="translate(-44.64 0.02)"/><path class="cls-1" d="M87.28,18.59a.37.37,0,0,1-.32-.15.84.84,0,0,1-.1-.48.93.93,0,0,1,.1-.51.34.34,0,0,1,.32-.14h.22a.56.56,0,0,0,.38-.11.47.47,0,0,0,.12-.37V12.54c0-.06,0-.09.11-.09h1.55c.07,0,.11,0,.11.09v4.91a1.18,1.18,0,0,1-.28.86,1.29,1.29,0,0,1-.94.28Z" transform="translate(-44.64 0.02)"/><path class="cls-1" d="M92.67,18.5c0,.06,0,.09-.1.09H91c-.07,0-.1,0-.1-.09v-6c0-.06,0-.09.1-.09h1.56c.07,0,.1,0,.1.09Z" transform="translate(-44.64 0.02)"/><path class="cls-1" d="M96.61,15.86c-.07,0-.11,0-.11-.09v-1.1c0-.06,0-.09.11-.09h1.94a2.09,2.09,0,0,1,1.4.4,1.52,1.52,0,0,1,.47,1.23v.59a1.42,1.42,0,0,0,0,.16,1,1,0,0,0,.11.17.69.69,0,0,0,.21.13,1,1,0,0,0,.33,0h.3c.28,0,.42.21.42.64a.89.89,0,0,1-.1.47.34.34,0,0,1-.32.17,2.65,2.65,0,0,1-.74-.1,1,1,0,0,1-.52-.41,1,1,0,0,1-.54.39,2.39,2.39,0,0,1-.81.12H96.2c-.07,0-.1,0-.1-.09V17.4c0-.06,0-.09.1-.09h1.67a2,2,0,0,0,.4,0,.41.41,0,0,0,.22-.1.38.38,0,0,0,.09-.18,1.84,1.84,0,0,0,0-.26v-.31a.48.48,0,0,0-.2-.44,1.24,1.24,0,0,0-.61-.12Z" transform="translate(-44.64 0.02)"/><path class="cls-1" d="M101.48,18.59a.35.35,0,0,1-.3-.12.78.78,0,0,1-.1-.48,1.15,1.15,0,0,1,.09-.53.33.33,0,0,1,.31-.15h1.44a.35.35,0,0,1,.31.15,1.39,1.39,0,0,1,0,1,.41.41,0,0,1-.32.12Z" transform="translate(-44.64 0.02)"/><path class="cls-1" d="M103,18.59a.35.35,0,0,1-.3-.12.87.87,0,0,1-.09-.48,1.15,1.15,0,0,1,.09-.53.32.32,0,0,1,.3-.15h1.45a.36.36,0,0,1,.31.15,1,1,0,0,1,.1.5.84.84,0,0,1-.1.51.37.37,0,0,1-.31.12Z" transform="translate(-44.64 0.02)"/><path class="cls-1" d="M104.57,18.59a.35.35,0,0,1-.3-.12.85.85,0,0,1-.1-.48,1.15,1.15,0,0,1,.09-.53.33.33,0,0,1,.31-.15H106a.35.35,0,0,1,.31.15,1,1,0,0,1,.11.5.93.93,0,0,1-.1.51.39.39,0,0,1-.32.12Z" transform="translate(-44.64 0.02)"/><path class="cls-1" d="M106.08,18.59a.36.36,0,0,1-.31-.15.9.9,0,0,1-.1-.49.91.91,0,0,1,.1-.5.33.33,0,0,1,.31-.14h.23a.56.56,0,0,0,.38-.11.47.47,0,0,0,.12-.37v-2c0-.06,0-.09.11-.09h1.55c.07,0,.11,0,.11.09v2.64a1.18,1.18,0,0,1-.28.86,1.29,1.29,0,0,1-.94.28Zm.81-4.78c-.06,0-.1,0-.1-.09v-1c0-.06,0-.09.1-.09h1.58c.07,0,.11,0,.11.09v1c0,.06,0,.09-.11.09Z" transform="translate(-44.64 0.02)"/><path class="cls-1" d="M110.23,14.81c0-.06,0-.09.1-.09h1.56c.07,0,.1,0,.1.09v2.06a.35.35,0,0,0,.19.31,1,1,0,0,0,.53.13H113c.28,0,.41.21.41.64a1,1,0,0,1-.09.47.36.36,0,0,1-.32.17,2.38,2.38,0,0,1-.59-.07,1,1,0,0,1-.42-.25v.12a2.12,2.12,0,0,1-.51,1.57,2.35,2.35,0,0,1-1.67.5h-.57c-.07,0-.1,0-.1-.09V19.26c0-.06,0-.09.1-.09h.21c.33,0,.54-.08.64-.24a1.5,1.5,0,0,0,.14-.72Z" transform="translate(-44.64 0.02)"/><path class="cls-1" d="M113.05,18.59a.35.35,0,0,1-.3-.12.87.87,0,0,1-.09-.48,1.33,1.33,0,0,1,.08-.53.33.33,0,0,1,.31-.15h1.44a.34.34,0,0,1,.31.15,1,1,0,0,1,.11.5.84.84,0,0,1-.1.51.39.39,0,0,1-.32.12Z" transform="translate(-44.64 0.02)"/><path class="cls-1" d="M115.66,14.81c0-.06,0-.09.1-.09h1.57c.07,0,.1,0,.1.09v2.06a.35.35,0,0,0,.19.31,1,1,0,0,0,.53.13h.3c.27,0,.41.21.41.64a.89.89,0,0,1-.1.47.33.33,0,0,1-.31.17,2.29,2.29,0,0,1-.68-.09,1,1,0,0,1-.48-.36.88.88,0,0,1-.23.24,1,1,0,0,1-.32.13,1.87,1.87,0,0,1-.44.06l-.56,0h-1.17a.39.39,0,0,1-.32-.14,1,1,0,0,1-.1-.51.87.87,0,0,1,.1-.49.35.35,0,0,1,.32-.14h.59a.48.48,0,0,0,.4-.14.9.9,0,0,0,.1-.48Zm-.59-1c-.06,0-.1,0-.1-.09v-1c0-.06,0-.09.1-.09h1.22c.07,0,.1,0,.1.09v1c0,.06,0,.09-.1.09Zm1.72,0c-.07,0-.11,0-.11-.09v-1c0-.06,0-.09.11-.09H118c.07,0,.11,0,.11.09v1c0,.06,0,.09-.11.09Z" transform="translate(-44.64 0.02)"/><path class="cls-1" d="M118.5,18.59a.35.35,0,0,1-.3-.12.87.87,0,0,1-.09-.48,1.17,1.17,0,0,1,.08-.53.33.33,0,0,1,.31-.15h1.44a.34.34,0,0,1,.31.15,1,1,0,0,1,.11.5.84.84,0,0,1-.1.51.39.39,0,0,1-.32.12Z" transform="translate(-44.64 0.02)"/><path class="cls-1" d="M120.05,18.59a.35.35,0,0,1-.3-.12.78.78,0,0,1-.1-.48,1.15,1.15,0,0,1,.09-.53.33.33,0,0,1,.31-.15h1.44a.35.35,0,0,1,.31.15,1.39,1.39,0,0,1,0,1,.41.41,0,0,1-.32.12Z" transform="translate(-44.64 0.02)"/><path class="cls-1" d="M121.59,18.59a.35.35,0,0,1-.3-.12.87.87,0,0,1-.09-.48,1.15,1.15,0,0,1,.09-.53.32.32,0,0,1,.3-.15H123a.36.36,0,0,1,.31.15,1,1,0,0,1,.1.5.84.84,0,0,1-.1.51.37.37,0,0,1-.31.12Z" transform="translate(-44.64 0.02)"/><path class="cls-1" d="M123.09,18.59a.35.35,0,0,1-.31-.15.83.83,0,0,1-.11-.48,1,1,0,0,1,.1-.51.35.35,0,0,1,.32-.14h.23a.57.57,0,0,0,.38-.11.51.51,0,0,0,.11-.37V12.54c0-.06,0-.09.11-.09h1.56c.06,0,.1,0,.1.09v4.91a1.14,1.14,0,0,1-.28.86,1.29,1.29,0,0,1-.94.28Z" transform="translate(-44.64 0.02)"/><path class="cls-1" d="M128.49,18.5c0,.06,0,.09-.11.09h-1.56c-.06,0-.1,0-.1-.09v-6c0-.06,0-.09.1-.09h1.56c.07,0,.11,0,.11.09Z" transform="translate(-44.64 0.02)"/><path class="cls-1" d="M47.09,23.37a.12.12,0,0,1,.13-.09h1.69a.13.13,0,0,1,.14.09l2.39,6c0,.06,0,.09-.08.09H49.65a.14.14,0,0,1-.14-.09l-.33-.95H46.89l-.33.95a.13.13,0,0,1-.14.09h-1.7c-.07,0-.09,0-.07-.09Zm1.64,3.69-.66-1.91h0l-.68,1.91Z" transform="translate(-44.64 0.02)"/><path class="cls-1" d="M52.11,23.37c0-.06,0-.09.1-.09h1.62c.07,0,.11,0,.11.09V28S54,28,54,28h3c.07,0,.1,0,.1.09v1.23c0,.06,0,.09-.1.09H52.21c-.07,0-.1,0-.1-.09Z" transform="translate(-44.64 0.02)"/><path class="cls-1" d="M58.48,29.42h0l-.05,0s0,0,0,0V24.74s0,0-.05,0H56.55l0,0h0a.07.07,0,0,1,0,0V23.37a.08.08,0,0,1,.07-.09H62a.13.13,0,0,1,.08,0v0a.05.05,0,0,1,0,0V24.6a.09.09,0,0,1,0,.07l-.06,0H60.23l0,0v4.64s0,0-.05.05H58.48Z" transform="translate(-44.64 0.02)"/><path class="cls-1" d="M66.59,29.42a.14.14,0,0,1-.15-.09l-1.07-2.09h-.68s-.06,0-.06.05v2c0,.06,0,.09-.1.09H62.91c-.07,0-.11,0-.11-.09v-6c0-.06,0-.09.11-.09h2.87a3.61,3.61,0,0,1,1.08.15,2.09,2.09,0,0,1,.8.41,1.73,1.73,0,0,1,.49.62A1.92,1.92,0,0,1,68,26.28a1.87,1.87,0,0,1-.86.69l1.3,2.34a.11.11,0,0,1,0,.08.08.08,0,0,1-.07,0Zm-.92-3.49a.94.94,0,0,0,.61-.18.56.56,0,0,0,.22-.47.58.58,0,0,0-.22-.48,1,1,0,0,0-.61-.17h-1s-.06,0-.06.05v1.19a.05.05,0,0,0,.06.06Z" transform="translate(-44.64 0.02)"/><path class="cls-1" d="M69.33,23.37c0-.06,0-.09.11-.09h4.61c.07,0,.11,0,.11.09v1.17c0,.06,0,.09-.11.09H71.22s-.06,0-.06.05v.93s0,.05.06.05h2.33c.07,0,.1,0,.1.09v1.14c0,.06,0,.09-.1.09H71.22a.05.05,0,0,0-.06.06v1a.05.05,0,0,0,.06.06h2.83c.07,0,.11,0,.11.09v1.16c0,.06,0,.09-.11.09H69.44c-.07,0-.11,0-.11-.09Z" transform="translate(-44.64 0.02)"/><path class="cls-1" d="M75.11,23.37c0-.06,0-.09.11-.09h1.52a.18.18,0,0,1,.18.09l2.13,3.48h0V23.37c0-.06,0-.09.1-.09h1.46c.07,0,.1,0,.1.09v6c0,.06,0,.09-.1.09H79.12a.18.18,0,0,1-.18-.09l-2.1-3.47h-.07v3.47c0,.06,0,.09-.1.09H75.22c-.07,0-.11,0-.11-.09Z" transform="translate(-44.64 0.02)"/><path class="cls-1" d="M81.89,23.37c0-.06,0-.09.11-.09h2.73a3.46,3.46,0,0,1,1.59.34,2,2,0,0,1,.92,1.06l.09.3a2.36,2.36,0,0,1,.07.33c0,.13,0,.28,0,.44s0,.37,0,.6,0,.43,0,.59,0,.31,0,.44a2.53,2.53,0,0,1-.07.34l-.09.3a1.93,1.93,0,0,1-.92,1.06,3.34,3.34,0,0,1-1.59.34H82c-.07,0-.11,0-.11-.09ZM83.72,28s0,.05.06.05h.55a1.73,1.73,0,0,0,.76-.13.78.78,0,0,0,.4-.45c0-.05,0-.1.05-.15s0-.12,0-.2a2.36,2.36,0,0,0,0-.3c0-.11,0-.25,0-.43s0-.31,0-.43a2.51,2.51,0,0,0,0-.3c0-.08,0-.14,0-.19a1.31,1.31,0,0,0-.05-.15.77.77,0,0,0-.4-.46,1.73,1.73,0,0,0-.76-.13h-.55s-.06,0-.06,0Z" transform="translate(-44.64 0.02)"/><path class="cls-1" d="M90.09,23.37a.13.13,0,0,1,.14-.09h1.69a.14.14,0,0,1,.14.09l2.38,6c0,.06,0,.09-.07.09H92.66a.13.13,0,0,1-.14-.09l-.33-.95H89.9l-.34.95a.12.12,0,0,1-.13.09h-1.7c-.07,0-.1,0-.08-.09Zm1.64,3.69-.65-1.91h0l-.69,1.91Z" transform="translate(-44.64 0.02)"/><path class="cls-1" d="M95.12,23.37c0-.06,0-.09.1-.09h1.62c.07,0,.1,0,.1.09V28S97,28,97,28h3c.07,0,.1,0,.1.09v1.23c0,.06,0,.09-.1.09H95.22c-.07,0-.1,0-.1-.09Z" transform="translate(-44.64 0.02)"/><path class="cls-1" d="M103.41,29.53a6,6,0,0,1-.85-.07,6.23,6.23,0,0,1-.8-.2,4,4,0,0,1-.69-.28,2.17,2.17,0,0,1-.5-.33c-.06,0-.07-.09,0-.14l.93-1a.1.1,0,0,1,.15,0,3,3,0,0,0,.79.43,2.82,2.82,0,0,0,1,.19,1.49,1.49,0,0,0,.75-.16.48.48,0,0,0,.25-.42.39.39,0,0,0-.19-.33,2,2,0,0,0-.7-.19l-.38,0a3.59,3.59,0,0,1-1.75-.61,1.56,1.56,0,0,1-.6-1.32,1.73,1.73,0,0,1,.18-.79,1.88,1.88,0,0,1,.53-.6,3,3,0,0,1,.83-.39,4,4,0,0,1,1.08-.14,5.19,5.19,0,0,1,1.39.18,4,4,0,0,1,1.14.5.09.09,0,0,1,0,.14l-.78,1a.11.11,0,0,1-.15,0,3.29,3.29,0,0,0-.77-.34,2.76,2.76,0,0,0-.82-.12.94.94,0,0,0-.58.14.44.44,0,0,0-.19.37.37.37,0,0,0,.19.33,1.71,1.71,0,0,0,.71.19l.37,0a3.52,3.52,0,0,1,1.75.61,1.62,1.62,0,0,1,.59,1.34,1.65,1.65,0,0,1-.19.79,1.79,1.79,0,0,1-.55.62,2.88,2.88,0,0,1-.9.41A4.71,4.71,0,0,1,103.41,29.53Z" transform="translate(-44.64 0.02)"/><path class="cls-1" d="M109,23.37a.12.12,0,0,1,.13-.09h1.7a.13.13,0,0,1,.13.09l2.39,6c0,.06,0,.09-.07.09H111.6a.12.12,0,0,1-.13-.09l-.33-.95h-2.3l-.33.95a.13.13,0,0,1-.14.09h-1.7c-.07,0-.09,0-.07-.09Zm1.64,3.69L110,25.15h0l-.68,1.91Z" transform="translate(-44.64 0.02)"/><path class="cls-1" d="M116.55,29.53a3.83,3.83,0,0,1-1.16-.16,2.45,2.45,0,0,1-.89-.47,2.11,2.11,0,0,1-.56-.78,2.72,2.72,0,0,1-.2-1.07V23.37c0-.06,0-.09.1-.09h1.62c.07,0,.11,0,.11.09v3.78a.93.93,0,0,0,.27.71,1,1,0,0,0,.71.25,1,1,0,0,0,.73-.25,1,1,0,0,0,.25-.71V23.37c0-.06,0-.09.1-.09h1.62c.07,0,.11,0,.11.09v3.68a2.55,2.55,0,0,1-.21,1.07,2,2,0,0,1-.57.78,2.33,2.33,0,0,1-.88.47A3.72,3.72,0,0,1,116.55,29.53Z" transform="translate(-44.64 0.02)"/><path class="cls-1" d="M120.48,23.37c0-.06,0-.09.1-.09h2.73a3.54,3.54,0,0,1,1.6.34,1.94,1.94,0,0,1,.91,1.06c0,.1.07.2.1.3a2.36,2.36,0,0,1,.07.33c0,.13,0,.28,0,.44s0,.37,0,.6,0,.43,0,.59,0,.31,0,.44a2.53,2.53,0,0,1-.07.34,2.64,2.64,0,0,1-.1.3,1.91,1.91,0,0,1-.91,1.06,3.41,3.41,0,0,1-1.6.34h-2.73c-.07,0-.1,0-.1-.09ZM122.3,28s0,.05.07.05h.55a1.76,1.76,0,0,0,.76-.13.81.81,0,0,0,.4-.45c0-.05,0-.1,0-.15a.88.88,0,0,0,0-.2,2.36,2.36,0,0,0,0-.3v-.86a2.51,2.51,0,0,0,0-.3.78.78,0,0,0,0-.19,1.55,1.55,0,0,0,0-.15.8.8,0,0,0-.4-.46,1.76,1.76,0,0,0-.76-.13h-.55s-.07,0-.07,0Z" transform="translate(-44.64 0.02)"/><path class="cls-1" d="M127,23.37c0-.06,0-.09.1-.09h1.62c.07,0,.11,0,.11.09v6c0,.06,0,.09-.11.09h-1.62c-.07,0-.1,0-.1-.09Z" transform="translate(-44.64 0.02)"/><path class="cls-2" d="M169.7,25h-3.54l1.91-8.07h1.63a5.29,5.29,0,0,0,3.22-.83A2.65,2.65,0,0,0,174,13.89c0-2-1.52-3-4.56-3.07l1.18-5.22c0-.09.07-.31.16-.65s.15-.7.21-1.07a8.23,8.23,0,0,0,.08-1.13,2.49,2.49,0,0,0-.91-2A4,4,0,0,0,167.59,0a3.37,3.37,0,0,0-2.18.61,3.1,3.1,0,0,0-1,1.49c-.19.59-.39,1.37-.6,2.33l-1.53,6.35h-7l1.18-5.16c.36-1.68.54-2.61.54-2.8a2.53,2.53,0,0,0-.89-2A3.84,3.84,0,0,0,153.5,0a3.69,3.69,0,0,0-2,.47,3.25,3.25,0,0,0-1.18,1.39,13.15,13.15,0,0,0-.78,2.52l-1.5,6.35h-4.75a5.25,5.25,0,0,0-3.23.84,2.74,2.74,0,0,0-1,1.41H150.6l1.14-5.54a.9.9,0,0,1,.9-.65h.16a.81.81,0,0,1,.74.92l-1.24,6a.78.78,0,0,1-.35.49h0a.92.92,0,0,1-.77.38H139.11a2.92,2.92,0,0,0,1,1.44,5,5,0,0,0,3.2.9h3.32L144.83,25h-1.5a5.12,5.12,0,0,0-3.23.87,2.77,2.77,0,0,0-1.1,2.26c0,2,1.47,3,4.4,3.05l-1.18,5.18-.3,1.4a6.49,6.49,0,0,0-.18,1.43,2.5,2.5,0,0,0,.93,2,2.79,2.79,0,0,0,.82.49s0-.05,0-.08l3.41-13.3a.8.8,0,0,1,.43-.52h0a1,1,0,0,1,.58-.18h13.31L163,19a.89.89,0,0,1,.9-.66h.16a.81.81,0,0,1,.73.93l-1.9,9.19,0,.11h0a.89.89,0,0,1-.89.62H148.56L145.29,42v0a2.84,2.84,0,0,0,2.6-1,13.23,13.23,0,0,0,1.19-3.4l1.5-6.37h7l-1.17,5.18A11.4,11.4,0,0,0,156,39.2a2.52,2.52,0,0,0,.92,2,3.8,3.8,0,0,0,2.52.78,3.43,3.43,0,0,0,2.2-.62,3.12,3.12,0,0,0,1-1.46c.18-.55.39-1.34.62-2.36l1.5-6.37h4.91a5.11,5.11,0,0,0,3.23-.85,2.67,2.67,0,0,0,1.07-2.2,2.8,2.8,0,0,0-1.08-2.25A5,5,0,0,0,169.7,25Zm-16.49-19a2.37,2.37,0,0,1-2.52-2.19,2.54,2.54,0,0,1,5,0A2.37,2.37,0,0,1,153.21,6.06Zm5.84,19h-7.11l1.88-8.07h7.05Zm6.65-13a1.4,1.4,0,0,1-1.49-1.29,1.5,1.5,0,0,1,3,0A1.4,1.4,0,0,1,165.7,12Zm2.71-9.47a.9.9,0,0,1,.89-.63l.2,0a.8.8,0,0,1,.7,1l-1.37,5.45a.93.93,0,0,1-1.09.61.8.8,0,0,1-.7-1Zm-4.18,5,1.37-5.45a.92.92,0,0,1,.9-.63l.19,0a.8.8,0,0,1,.7,1L166,7.9a.93.93,0,0,1-1.09.61A.8.8,0,0,1,164.23,7.56Zm.78,8.07a1.41,1.41,0,0,1-1.49-1.3,1.51,1.51,0,0,1,3,0A1.41,1.41,0,0,1,165,15.63Z" transform="translate(-44.64 0.02)"/><ellipse class="cls-3" cx="108.57" cy="3.9" rx="1.49" ry="1.3"/></svg>