<?xml version="1.0" encoding="utf-8"?>
<!-- Generator: Adobe Illustrator 25.0.0, SVG Export Plug-In . SVG Version: 6.00 Build 0)  -->
<svg version="1.1" id="Layer_1" xmlns="http://www.w3.org/2000/svg" xmlns:xlink="http://www.w3.org/1999/xlink" x="0px" y="0px"
	 viewBox="0 0 157 41" style="enable-background:new 0 0 157 41;" xml:space="preserve">
<style type="text/css">
	.st0{fill:url(#SVGID_1_);}
	.st1{fill:url(#SVGID_2_);}
	.st2{fill:#FFFFFF;}
</style>
<g>
	<g>
		<g>
			<linearGradient id="SVGID_1_" gradientUnits="userSpaceOnUse" x1="108.8233" y1="20.5" x2="136.1156" y2="20.5">
				<stop  offset="0" style="stop-color:#E7E56A"/>
				<stop  offset="1" style="stop-color:#12B3B9"/>
			</linearGradient>
			<path class="st0" d="M132.8,23.6H130l1.5-6.3h1.3c1.1,0,1.9-0.2,2.5-0.6c0.6-0.4,0.8-1,0.8-1.7c0-1.6-1.2-2.4-3.6-2.4l0.9-4.1
				c0-0.1,0.1-0.2,0.1-0.5c0.1-0.3,0.1-0.5,0.2-0.8c0-0.3,0.1-0.6,0.1-0.9c0-0.7-0.2-1.2-0.7-1.6c-0.5-0.4-1.1-0.6-2-0.6
				c-0.7,0-1.3,0.2-1.7,0.5c-0.4,0.3-0.7,0.7-0.8,1.2c-0.1,0.5-0.3,1.1-0.5,1.8l-1.2,4.9h-5.4l0.9-4c0.3-1.3,0.4-2,0.4-2.2
				c0-0.6-0.2-1.2-0.7-1.6c-0.5-0.4-1.1-0.6-2-0.6c-0.6,0-1.1,0.1-1.5,0.4c-0.4,0.2-0.7,0.6-0.9,1.1s-0.4,1.1-0.6,2l-1.2,4.9h-3.7
				c-1.1,0-2,0.2-2.5,0.7c-0.4,0.3-0.6,0.7-0.8,1.1h9l0.9-4.3c0.1-0.3,0.4-0.5,0.7-0.5c0,0,0.1,0,0.1,0c0.4,0.1,0.6,0.4,0.6,0.7
				l-1,4.7c0,0.2-0.1,0.3-0.3,0.4c0,0,0,0,0,0c-0.1,0.2-0.3,0.3-0.6,0.3h-9.4c0.1,0.4,0.4,0.8,0.8,1.1c0.6,0.5,1.4,0.7,2.5,0.7h2.6
				l-1.4,6.3h-1.2c-1.1,0-2,0.2-2.5,0.7c-0.6,0.5-0.9,1-0.9,1.8c0,1.5,1.1,2.3,3.4,2.4l-0.9,4c-0.1,0.3-0.1,0.7-0.2,1.1
				c-0.1,0.4-0.1,0.8-0.1,1.1c0,0.6,0.2,1.2,0.7,1.6c0.2,0.2,0.4,0.3,0.6,0.4c0,0,0,0,0-0.1l2.7-10.4c0-0.2,0.2-0.3,0.3-0.4
				c0,0,0,0,0,0c0.1-0.1,0.3-0.1,0.5-0.1h10.4l1.4-6.7c0.1-0.3,0.4-0.5,0.7-0.5c0,0,0.1,0,0.1,0c0.4,0.1,0.6,0.4,0.6,0.7l-1.5,7.2
				c0,0,0,0.1,0,0.1c0,0,0,0,0,0c-0.1,0.3-0.4,0.5-0.7,0.5h-10.5l-2.5,9.9c0,0,0,0,0,0c1,0,1.7-0.3,2-0.8c0.3-0.5,0.6-1.4,0.9-2.6
				l1.2-5h5.5l-0.9,4c-0.2,0.9-0.3,1.6-0.3,2.2c0,0.6,0.2,1.2,0.7,1.6c0.5,0.4,1.1,0.6,2,0.6c0.7,0,1.3-0.2,1.7-0.5
				c0.4-0.3,0.7-0.7,0.8-1.1c0.1-0.4,0.3-1,0.5-1.8l1.2-5h3.8c1.1,0,2-0.2,2.5-0.7c0.6-0.4,0.8-1,0.8-1.7c0-0.7-0.3-1.3-0.8-1.8
				C134.7,23.9,133.9,23.6,132.8,23.6z M119.9,8.9c-1.1,0-2-0.8-2-1.7c0-0.9,0.9-1.7,2-1.7s2,0.8,2,1.7C121.9,8.1,121,8.9,119.9,8.9
				z M124.5,23.6h-5.5l1.5-6.3h5.5L124.5,23.6z M129.6,13.5c-0.6,0-1.2-0.5-1.2-1c0-0.6,0.5-1,1.2-1c0.6,0,1.2,0.5,1.2,1
				C130.8,13.1,130.3,13.5,129.6,13.5z M131.8,6.1c0.1-0.3,0.4-0.5,0.7-0.5c0.1,0,0.1,0,0.2,0c0.4,0.1,0.6,0.4,0.5,0.7l-1.1,4.2
				c-0.1,0.3-0.5,0.5-0.9,0.5c-0.4-0.1-0.6-0.4-0.5-0.7L131.8,6.1z M128.5,10l1.1-4.3c0.1-0.3,0.4-0.5,0.7-0.5c0.1,0,0.1,0,0.2,0
				c0.4,0.1,0.6,0.4,0.5,0.7l-1.1,4.2c-0.1,0.3-0.5,0.5-0.9,0.5C128.7,10.7,128.4,10.4,128.5,10z M129.1,16.3c-0.6,0-1.2-0.5-1.2-1
				c0-0.6,0.5-1,1.2-1c0.6,0,1.2,0.5,1.2,1C130.3,15.9,129.7,16.3,129.1,16.3z"/>
		</g>
		<linearGradient id="SVGID_2_" gradientUnits="userSpaceOnUse" x1="118.7449" y1="7.1529" x2="121.0673" y2="7.1529">
			<stop  offset="0" style="stop-color:#E7E56A"/>
			<stop  offset="1" style="stop-color:#12B3B9"/>
		</linearGradient>
		<ellipse class="st1" cx="119.9" cy="7.2" rx="1.2" ry="1"/>
	</g>
</g>
<g>
	<g>
		<path class="st2" d="M24.6,17.2c0,0.2,0,0.3,0.1,0.4c0.1,0.1,0.2,0.2,0.3,0.3c0.1,0.1,0.3,0.1,0.5,0.1c0.2,0,0.3,0,0.5,0h1.6
			c0.4,0,0.6,0,0.7-0.1s0.2-0.2,0.2-0.2c0-0.1-0.1-0.2-0.2-0.2c-0.1-0.1-0.2-0.2-0.4-0.3c-0.2-0.1-0.3-0.2-0.5-0.3
			c-0.2-0.1-0.4-0.2-0.5-0.4c-0.2-0.1-0.3-0.3-0.4-0.5c-0.1-0.2-0.2-0.4-0.2-0.6c0-0.3,0.1-0.5,0.2-0.7c0.1-0.2,0.3-0.4,0.5-0.5
			c0.2-0.1,0.5-0.3,0.7-0.3c0.3-0.1,0.6-0.1,0.9-0.1c0.4,0,0.8,0.1,1.2,0.2s0.6,0.3,0.8,0.5c0,0,0,0.1,0,0.1l-0.8,0.8
			c0,0-0.1,0-0.1,0c-0.1-0.1-0.3-0.2-0.4-0.2c-0.1,0-0.3-0.1-0.4-0.1c-0.2,0-0.3,0-0.5,0.1c-0.1,0.1-0.2,0.2-0.2,0.4
			c0,0.1,0.1,0.3,0.2,0.4c0.1,0.1,0.2,0.2,0.4,0.3c0.2,0.1,0.3,0.2,0.5,0.3c0.2,0.1,0.4,0.2,0.5,0.4c0.2,0.1,0.3,0.3,0.4,0.5
			c0.1,0.2,0.2,0.4,0.2,0.6c0,0.5-0.2,0.8-0.6,1.1c-0.4,0.3-0.9,0.4-1.7,0.4h-2.4c-0.5,0-1,0-1.3-0.1c-0.4-0.1-0.7-0.2-0.9-0.4
			c-0.2-0.2-0.4-0.4-0.5-0.6c-0.1-0.2-0.2-0.5-0.2-0.8c0-0.3,0-0.5,0.1-0.9c0.1-0.3,0.2-0.6,0.4-0.8c0,0,0.1-0.1,0.2,0l1.4,0.3
			c0,0,0.1,0,0.1,0.1c0,0,0,0,0,0.1c-0.1,0.2-0.2,0.3-0.2,0.5C24.7,16.7,24.6,16.9,24.6,17.2z M25.4,20.9c-0.1,0-0.1,0-0.1-0.1v-1
			c0-0.1,0-0.1,0.1-0.1h1.2c0.1,0,0.1,0,0.1,0.1v1c0,0.1,0,0.1-0.1,0.1H25.4z M27.1,20.9c-0.1,0-0.1,0-0.1-0.1v-1
			c0-0.1,0-0.1,0.1-0.1h1.2c0.1,0,0.1,0,0.1,0.1v1c0,0.1,0,0.1-0.1,0.1H27.1z"/>
		<path class="st2" d="M35.5,16.6c0,0.3,0,0.5-0.1,0.7c-0.1,0.2-0.2,0.3-0.3,0.5c-0.1,0.1-0.3,0.2-0.5,0.3c-0.2,0.1-0.4,0.1-0.7,0.1
			h-2.5c-0.1,0-0.1,0-0.1-0.1V17c0-0.1,0-0.1,0.1-0.1h1.6c0.2,0,0.3,0,0.4,0c0.1,0,0.2,0,0.2-0.1c0.1,0,0.1-0.1,0.1-0.2
			c0-0.1,0-0.1,0-0.2V16c0-0.2-0.1-0.3-0.2-0.4c-0.1-0.1-0.3-0.1-0.6-0.1h-1.2c-0.1,0-0.1,0-0.1-0.1v-1.1c0-0.1,0-0.1,0.1-0.1h1.9
			c0.6,0,1.1,0.1,1.4,0.4c0.3,0.3,0.5,0.7,0.5,1.2V16.6z"/>
		<path class="st2" d="M38.8,18.1c-0.4,0-0.7,0-1-0.1s-0.5-0.2-0.7-0.3c-0.2-0.1-0.4-0.3-0.5-0.6c-0.1-0.2-0.2-0.5-0.2-0.9
			c0-0.4,0.1-0.7,0.2-1c0.1-0.3,0.3-0.5,0.5-0.6c0.2-0.2,0.5-0.3,0.7-0.3c0.3-0.1,0.6-0.1,0.9-0.1c0.3,0,0.6,0,0.9,0.1
			c0.3,0.1,0.5,0.2,0.8,0.3c0.2,0.1,0.4,0.4,0.5,0.6c0.1,0.3,0.2,0.6,0.2,1v0.7h0.7c0.3,0,0.4,0.2,0.4,0.6c0,0.3,0,0.4-0.1,0.5
			c-0.1,0.1-0.2,0.1-0.3,0.1h-0.7v0.1c0,0.5-0.2,1-0.5,1.2C40.3,19.8,39.8,20,39,20h-1.6c-0.1,0-0.1,0-0.1-0.1v-1.1
			c0-0.1,0-0.1,0.1-0.1h1.1c0.1,0,0.3,0,0.4,0c0.1,0,0.2,0,0.3-0.1c0.1,0,0.1-0.1,0.2-0.2c0-0.1,0.1-0.2,0.1-0.3H38.8z M38.8,15.5
			c-0.2,0-0.4,0.1-0.5,0.2c-0.1,0.1-0.2,0.3-0.2,0.5c0,0.1,0,0.2,0.1,0.3c0,0.1,0.1,0.2,0.1,0.2c0.1,0.1,0.1,0.1,0.2,0.1
			c0.1,0,0.2,0,0.3,0h0.7v-0.7c0-0.3-0.1-0.4-0.2-0.5C39.2,15.5,39,15.5,38.8,15.5z"/>
		<path class="st2" d="M41.9,18.1c-0.1,0-0.2,0-0.3-0.1c-0.1-0.1-0.1-0.2-0.1-0.5c0-0.2,0-0.4,0.1-0.5c0.1-0.1,0.2-0.2,0.3-0.2h1.4
			c0.1,0,0.2,0.1,0.3,0.2c0.1,0.1,0.1,0.3,0.1,0.5c0,0.3,0,0.4-0.1,0.5c-0.1,0.1-0.2,0.1-0.3,0.1H41.9z"/>
		<path class="st2" d="M49.3,16.9c0.3,0,0.4,0.2,0.4,0.6c0,0.2,0,0.4-0.1,0.5c-0.1,0.1-0.2,0.2-0.3,0.2h-1.7c-0.2,0-0.5,0-0.7-0.1
			c-0.2,0-0.4-0.1-0.6-0.2c-0.2,0.1-0.5,0.2-0.7,0.2c-0.2,0-0.5,0.1-0.7,0.1h-1.6c-0.1,0-0.2,0-0.3-0.1c-0.1-0.1-0.1-0.2-0.1-0.5
			c0-0.4,0.1-0.6,0.4-0.6h0.9c0.1,0,0.2,0,0.4,0c0.1,0,0.3,0,0.4,0c-0.1-0.2-0.3-0.4-0.5-0.5c-0.2-0.1-0.4-0.3-0.6-0.4
			c-0.1,0-0.1-0.1-0.1-0.2c0-0.1,0-0.2,0-0.2v-0.6c0-0.1,0.1-0.2,0.2-0.2c0.2-0.1,0.4-0.1,0.6-0.2c0.2-0.1,0.5-0.1,0.8-0.1
			c0.3,0,0.6-0.1,0.9-0.1c0.4,0,0.8,0,1.1,0.1c0.3,0.1,0.6,0.2,0.8,0.3c0.2,0.1,0.4,0.3,0.4,0.4c0.1,0.2,0.1,0.3,0.1,0.5
			c0,0.1,0,0.3-0.1,0.4c-0.1,0.1-0.1,0.2-0.2,0.4c-0.1,0.1-0.2,0.2-0.3,0.3c-0.1,0.1-0.2,0.2-0.3,0.2c0.1,0,0.2,0,0.3,0
			c0.1,0,0.2,0,0.3,0H49.3z M46.4,16.8c0.5-0.2,0.7-0.5,0.7-0.8c0-0.1-0.1-0.2-0.2-0.3c-0.1-0.1-0.3-0.1-0.6-0.1c-0.2,0-0.4,0-0.5,0
			c-0.1,0-0.2,0.1-0.3,0.1c0.2,0.2,0.4,0.3,0.6,0.6C46.2,16.4,46.3,16.6,46.4,16.8z"/>
		<path class="st2" d="M49.4,18.1c-0.1,0-0.2,0-0.3-0.1C49,18,49,17.8,49,17.6c0-0.2,0-0.4,0.1-0.5c0.1-0.1,0.2-0.2,0.3-0.2h1.4
			c0.1,0,0.2,0.1,0.3,0.2c0.1,0.1,0.1,0.3,0.1,0.5c0,0.3,0,0.4-0.1,0.5c-0.1,0.1-0.2,0.1-0.3,0.1H49.4z"/>
		<path class="st2" d="M59,16.5c0,0.1,0.1,0.2,0.2,0.3s0.3,0.1,0.5,0.1H60c0.3,0,0.4,0.2,0.4,0.6c0,0.4-0.1,0.6-0.4,0.6
			c-0.2,0-0.5,0-0.7-0.1c-0.2-0.1-0.3-0.2-0.5-0.4c-0.1,0.2-0.3,0.3-0.5,0.4s-0.5,0.1-0.8,0.1h-0.3c-0.3,0-0.5,0-0.7-0.1
			c-0.2-0.1-0.3-0.2-0.4-0.3c-0.1,0.2-0.2,0.3-0.5,0.4c-0.2,0.1-0.5,0.1-0.8,0.1h-0.3c-0.3,0-0.5,0-0.7-0.1s-0.3-0.2-0.4-0.3
			c-0.1,0.2-0.2,0.3-0.4,0.4c-0.2,0.1-0.5,0.1-0.8,0.1h-1.3c-0.1,0-0.1,0-0.2,0c0,0-0.1,0-0.1-0.1c0,0-0.1-0.1-0.1-0.2
			c0-0.1,0-0.2,0-0.3c0-0.2,0-0.4,0.1-0.5c0.1-0.1,0.2-0.2,0.3-0.2h0.5c0.2,0,0.3,0,0.4-0.1c0.1-0.1,0.1-0.2,0.1-0.5V15
			c0-0.1,0-0.1,0.1-0.1h1.5c0.1,0,0.1,0,0.1,0.1v1.4c0,0.2,0,0.3,0.1,0.3c0.1,0.1,0.2,0.1,0.4,0.1c0.2,0,0.4,0,0.4-0.1
			c0.1-0.1,0.1-0.2,0.1-0.4V15c0-0.1,0-0.1,0.1-0.1h1.5c0.1,0,0.1,0,0.1,0.1v1.4c0,0.2,0,0.3,0.1,0.4c0.1,0.1,0.2,0.1,0.4,0.1
			c0.2,0,0.3,0,0.4-0.1c0.1-0.1,0.1-0.2,0.1-0.4v-1.9c0-0.1,0-0.1,0.1-0.1h1.5c0.1,0,0.1,0,0.1,0.1V16.5z"/>
		<path class="st2" d="M60.1,18.1c-0.1,0-0.2,0-0.3-0.1c-0.1-0.1-0.1-0.2-0.1-0.5c0-0.2,0-0.4,0.1-0.5c0.1-0.1,0.2-0.2,0.3-0.2h1.4
			c0.1,0,0.2,0.1,0.3,0.2c0.1,0.1,0.1,0.3,0.1,0.5c0,0.3,0,0.4-0.1,0.5c-0.1,0.1-0.2,0.1-0.3,0.1H60.1z"/>
		<path class="st2" d="M61.5,18.1c-0.1,0-0.2,0-0.3-0.1c-0.1-0.1-0.1-0.3-0.1-0.5c0-0.2,0-0.4,0.1-0.5c0.1-0.1,0.2-0.1,0.3-0.1h0.2
			c0.2,0,0.3,0,0.4-0.1c0.1-0.1,0.1-0.2,0.1-0.4v-4.2c0-0.1,0-0.1,0.1-0.1h1.5c0.1,0,0.1,0,0.1,0.1V17c0,0.4-0.1,0.7-0.3,0.8
			c-0.2,0.2-0.5,0.3-0.9,0.3H61.5z"/>
		<path class="st2" d="M66.8,18.1c0,0.1,0,0.1-0.1,0.1h-1.5c-0.1,0-0.1,0-0.1-0.1v-5.8c0-0.1,0-0.1,0.1-0.1h1.5c0.1,0,0.1,0,0.1,0.1
			V18.1z"/>
		<path class="st2" d="M70.6,15.5c-0.1,0-0.1,0-0.1-0.1v-1.1c0-0.1,0-0.1,0.1-0.1h1.9c0.6,0,1.1,0.1,1.4,0.4
			c0.3,0.3,0.5,0.7,0.5,1.2v0.6c0,0,0,0.1,0.1,0.2c0,0.1,0.1,0.1,0.1,0.2c0,0,0.1,0.1,0.2,0.1c0.1,0,0.2,0,0.3,0h0.3
			c0.3,0,0.4,0.2,0.4,0.6c0,0.2,0,0.4-0.1,0.5c-0.1,0.1-0.2,0.2-0.3,0.2c-0.3,0-0.5,0-0.7-0.1c-0.2-0.1-0.4-0.2-0.5-0.4
			C74,17.8,73.8,18,73.6,18c-0.2,0.1-0.5,0.1-0.8,0.1h-2.5c-0.1,0-0.1,0-0.1-0.1V17c0-0.1,0-0.1,0.1-0.1h1.6c0.2,0,0.3,0,0.4,0
			c0.1,0,0.2-0.1,0.2-0.1c0,0,0.1-0.1,0.1-0.2c0-0.1,0-0.2,0-0.3V16c0-0.2-0.1-0.3-0.2-0.4c-0.1-0.1-0.3-0.1-0.6-0.1H70.6z"/>
		<path class="st2" d="M75.4,18.1c-0.1,0-0.2,0-0.3-0.1C75,18,75,17.8,75,17.6c0-0.2,0-0.4,0.1-0.5c0.1-0.1,0.2-0.2,0.3-0.2h1.4
			c0.1,0,0.2,0.1,0.3,0.2c0.1,0.1,0.1,0.3,0.1,0.5c0,0.3,0,0.4-0.1,0.5c-0.1,0.1-0.2,0.1-0.3,0.1H75.4z"/>
		<path class="st2" d="M76.9,18.1c-0.1,0-0.2,0-0.3-0.1c-0.1-0.1-0.1-0.2-0.1-0.5c0-0.2,0-0.4,0.1-0.5c0.1-0.1,0.2-0.2,0.3-0.2h1.4
			c0.1,0,0.2,0.1,0.3,0.2c0.1,0.1,0.1,0.3,0.1,0.5c0,0.3,0,0.4-0.1,0.5c-0.1,0.1-0.2,0.1-0.3,0.1H76.9z"/>
		<path class="st2" d="M78.4,18.1c-0.1,0-0.2,0-0.3-0.1C78,18,78,17.8,78,17.6c0-0.2,0-0.4,0.1-0.5c0.1-0.1,0.2-0.2,0.3-0.2h1.4
			c0.1,0,0.2,0.1,0.3,0.2c0.1,0.1,0.1,0.3,0.1,0.5c0,0.3,0,0.4-0.1,0.5c-0.1,0.1-0.2,0.1-0.3,0.1H78.4z"/>
		<path class="st2" d="M79.9,18.1c-0.1,0-0.2,0-0.3-0.1c-0.1-0.1-0.1-0.3-0.1-0.5s0-0.4,0.1-0.5c0.1-0.1,0.2-0.1,0.3-0.1h0.2
			c0.2,0,0.3,0,0.4-0.1c0.1-0.1,0.1-0.2,0.1-0.4v-2c0-0.1,0-0.1,0.1-0.1h1.5c0.1,0,0.1,0,0.1,0.1V17c0,0.4-0.1,0.7-0.3,0.8
			c-0.2,0.2-0.5,0.3-0.9,0.3H79.9z M80.7,13.5c-0.1,0-0.1,0-0.1-0.1v-1c0-0.1,0-0.1,0.1-0.1h1.5c0.1,0,0.1,0,0.1,0.1v1
			c0,0.1,0,0.1-0.1,0.1H80.7z"/>
		<path class="st2" d="M83.9,14.5c0-0.1,0-0.1,0.1-0.1h1.5c0.1,0,0.1,0,0.1,0.1v2c0,0.1,0.1,0.2,0.2,0.3c0.1,0.1,0.3,0.1,0.5,0.1
			h0.3c0.3,0,0.4,0.2,0.4,0.6c0,0.2,0,0.4-0.1,0.5c-0.1,0.1-0.2,0.2-0.3,0.2c-0.2,0-0.4,0-0.6-0.1c-0.2,0-0.3-0.1-0.4-0.2V18
			c0,0.7-0.2,1.2-0.5,1.5c-0.3,0.3-0.9,0.5-1.6,0.5H83c-0.1,0-0.1,0-0.1-0.1v-1.1c0-0.1,0-0.1,0.1-0.1h0.2c0.3,0,0.5-0.1,0.6-0.2
			c0.1-0.2,0.1-0.4,0.1-0.7V14.5z"/>
		<path class="st2" d="M86.7,18.1c-0.1,0-0.2,0-0.3-0.1c-0.1-0.1-0.1-0.2-0.1-0.5c0-0.2,0-0.4,0.1-0.5c0.1-0.1,0.2-0.2,0.3-0.2h1.4
			c0.1,0,0.2,0.1,0.3,0.2c0.1,0.1,0.1,0.3,0.1,0.5c0,0.3,0,0.4-0.1,0.5c-0.1,0.1-0.2,0.1-0.3,0.1H86.7z"/>
		<path class="st2" d="M89.2,14.5c0-0.1,0-0.1,0.1-0.1h1.5c0.1,0,0.1,0,0.1,0.1v2c0,0.1,0.1,0.2,0.2,0.3c0.1,0.1,0.3,0.1,0.5,0.1
			h0.3c0.3,0,0.4,0.2,0.4,0.6c0,0.2,0,0.4-0.1,0.5c-0.1,0.1-0.2,0.2-0.3,0.2c-0.3,0-0.5,0-0.7-0.1c-0.2-0.1-0.3-0.2-0.5-0.4
			c-0.1,0.1-0.1,0.2-0.2,0.2c-0.1,0.1-0.2,0.1-0.3,0.1c-0.1,0-0.3,0-0.4,0.1c-0.2,0-0.3,0-0.5,0h-1.1c-0.1,0-0.2,0-0.3-0.1
			c-0.1-0.1-0.1-0.3-0.1-0.5c0-0.2,0-0.4,0.1-0.5c0.1-0.1,0.2-0.1,0.3-0.1h0.6c0.2,0,0.3,0,0.4-0.1c0.1-0.1,0.1-0.2,0.1-0.5V14.5z
			 M88.6,13.5c-0.1,0-0.1,0-0.1-0.1v-1c0-0.1,0-0.1,0.1-0.1h1.2c0.1,0,0.1,0,0.1,0.1v1c0,0.1,0,0.1-0.1,0.1H88.6z M90.3,13.5
			c-0.1,0-0.1,0-0.1-0.1v-1c0-0.1,0-0.1,0.1-0.1h1.2c0.1,0,0.1,0,0.1,0.1v1c0,0.1,0,0.1-0.1,0.1H90.3z"/>
		<path class="st2" d="M92,18.1c-0.1,0-0.2,0-0.3-0.1c-0.1-0.1-0.1-0.2-0.1-0.5c0-0.2,0-0.4,0.1-0.5c0.1-0.1,0.2-0.2,0.3-0.2h1.4
			c0.1,0,0.2,0.1,0.3,0.2c0.1,0.1,0.1,0.3,0.1,0.5c0,0.3,0,0.4-0.1,0.5c-0.1,0.1-0.2,0.1-0.3,0.1H92z"/>
		<path class="st2" d="M93.5,18.1c-0.1,0-0.2,0-0.3-0.1c-0.1-0.1-0.1-0.2-0.1-0.5c0-0.2,0-0.4,0.1-0.5c0.1-0.1,0.2-0.2,0.3-0.2h1.4
			c0.1,0,0.2,0.1,0.3,0.2c0.1,0.1,0.1,0.3,0.1,0.5c0,0.3,0,0.4-0.1,0.5c-0.1,0.1-0.2,0.1-0.3,0.1H93.5z"/>
		<path class="st2" d="M95,18.1c-0.1,0-0.2,0-0.3-0.1c-0.1-0.1-0.1-0.2-0.1-0.5c0-0.2,0-0.4,0.1-0.5c0.1-0.1,0.2-0.2,0.3-0.2h1.4
			c0.1,0,0.2,0.1,0.3,0.2c0.1,0.1,0.1,0.3,0.1,0.5c0,0.3,0,0.4-0.1,0.5c-0.1,0.1-0.2,0.1-0.3,0.1H95z"/>
		<path class="st2" d="M96.5,18.1c-0.1,0-0.2,0-0.3-0.1c-0.1-0.1-0.1-0.3-0.1-0.5c0-0.2,0-0.4,0.1-0.5c0.1-0.1,0.2-0.1,0.3-0.1h0.2
			c0.2,0,0.3,0,0.4-0.1c0.1-0.1,0.1-0.2,0.1-0.4v-4.2c0-0.1,0-0.1,0.1-0.1h1.5c0.1,0,0.1,0,0.1,0.1V17c0,0.4-0.1,0.7-0.3,0.8
			c-0.2,0.2-0.5,0.3-0.9,0.3H96.5z"/>
		<path class="st2" d="M101.7,18.1c0,0.1,0,0.1-0.1,0.1h-1.5c-0.1,0-0.1,0-0.1-0.1v-5.8c0-0.1,0-0.1,0.1-0.1h1.5
			c0.1,0,0.1,0,0.1,0.1V18.1z"/>
		<path class="st2" d="M22.3,22.8c0-0.1,0.1-0.1,0.1-0.1h1.7c0.1,0,0.1,0,0.1,0.1l2.3,5.8c0,0.1,0,0.1-0.1,0.1h-1.7
			c-0.1,0-0.1,0-0.1-0.1l-0.3-0.9h-2.2l-0.3,0.9c0,0.1-0.1,0.1-0.1,0.1H20c-0.1,0-0.1,0-0.1-0.1L22.3,22.8z M23.9,26.4l-0.6-1.9h0
			l-0.7,1.9H23.9z"/>
		<path class="st2" d="M27.2,22.8c0-0.1,0-0.1,0.1-0.1h1.6c0.1,0,0.1,0,0.1,0.1v4.5c0,0,0,0.1,0.1,0.1H32c0.1,0,0.1,0,0.1,0.1v1.2
			c0,0.1,0,0.1-0.1,0.1h-4.7c-0.1,0-0.1,0-0.1-0.1V22.8z"/>
		<path class="st2" d="M33.4,28.7L33.4,28.7C33.4,28.7,33.3,28.7,33.4,28.7c-0.1,0-0.1,0-0.1-0.1v0v-4.5c0,0,0,0-0.1-0.1h0h-1.7h0
			c0,0,0,0,0,0l0,0l0,0c0,0,0,0,0-0.1v-1.2c0,0,0-0.1,0.1-0.1h0h5.3c0,0,0.1,0,0.1,0l0,0c0,0,0,0,0,0V24c0,0,0,0.1,0,0.1
			c0,0,0,0-0.1,0h0h-1.7c0,0,0,0,0,0l0,0v0v4.5v0c0,0,0,0-0.1,0.1c0,0,0,0-0.1,0H33.4z"/>
		<path class="st2" d="M41.3,28.7c-0.1,0-0.1,0-0.2-0.1l-1-2h-0.7c0,0-0.1,0-0.1,0.1v2c0,0.1,0,0.1-0.1,0.1h-1.6
			c-0.1,0-0.1,0-0.1-0.1v-5.8c0-0.1,0-0.1,0.1-0.1h2.8c0.4,0,0.7,0,1.1,0.1c0.3,0.1,0.6,0.2,0.8,0.4c0.2,0.2,0.4,0.4,0.5,0.6
			c0.1,0.2,0.2,0.5,0.2,0.8c0,0.4-0.1,0.7-0.3,1c-0.2,0.3-0.5,0.5-0.8,0.7l1.3,2.3c0,0,0,0.1,0,0.1c0,0,0,0-0.1,0H41.3z M40.4,25.3
			c0.3,0,0.5-0.1,0.6-0.2c0.1-0.1,0.2-0.3,0.2-0.5c0-0.2-0.1-0.3-0.2-0.5c-0.1-0.1-0.3-0.2-0.6-0.2h-1c0,0-0.1,0-0.1,0.1v1.2
			c0,0,0,0.1,0.1,0.1H40.4z"/>
		<path class="st2" d="M44,22.8c0-0.1,0-0.1,0.1-0.1h4.5c0.1,0,0.1,0,0.1,0.1V24c0,0.1,0,0.1-0.1,0.1h-2.8c0,0-0.1,0-0.1,0.1V25
			c0,0,0,0.1,0.1,0.1h2.3c0.1,0,0.1,0,0.1,0.1v1.1c0,0.1,0,0.1-0.1,0.1h-2.3c0,0-0.1,0-0.1,0.1v1c0,0,0,0.1,0.1,0.1h2.8
			c0.1,0,0.1,0,0.1,0.1v1.1c0,0.1,0,0.1-0.1,0.1h-4.5c-0.1,0-0.1,0-0.1-0.1V22.8z"/>
		<path class="st2" d="M49.6,22.8c0-0.1,0-0.1,0.1-0.1h1.5c0.1,0,0.1,0,0.2,0.1l2.1,3.4h0v-3.4c0-0.1,0-0.1,0.1-0.1H55
			c0.1,0,0.1,0,0.1,0.1v5.8c0,0.1,0,0.1-0.1,0.1h-1.5c-0.1,0-0.1,0-0.2-0.1l-2.1-3.4h-0.1v3.4c0,0.1,0,0.1-0.1,0.1h-1.4
			c-0.1,0-0.1,0-0.1-0.1V22.8z"/>
		<path class="st2" d="M56.3,22.8c0-0.1,0-0.1,0.1-0.1H59c0.6,0,1.1,0.1,1.6,0.3c0.4,0.2,0.7,0.6,0.9,1c0,0.1,0.1,0.2,0.1,0.3
			c0,0.1,0,0.2,0.1,0.3c0,0.1,0,0.3,0,0.4c0,0.2,0,0.4,0,0.6c0,0.2,0,0.4,0,0.6c0,0.2,0,0.3,0,0.4c0,0.1,0,0.2-0.1,0.3
			c0,0.1-0.1,0.2-0.1,0.3c-0.2,0.5-0.5,0.8-0.9,1c-0.4,0.2-0.9,0.3-1.6,0.3h-2.7c-0.1,0-0.1,0-0.1-0.1V22.8z M58,27.3
			C58,27.3,58.1,27.3,58,27.3l0.6,0.1c0.3,0,0.6,0,0.7-0.1c0.2-0.1,0.3-0.2,0.4-0.4c0,0,0-0.1,0-0.1c0-0.1,0-0.1,0-0.2
			c0-0.1,0-0.2,0-0.3c0-0.1,0-0.3,0-0.4c0-0.2,0-0.3,0-0.4c0-0.1,0-0.2,0-0.3c0-0.1,0-0.1,0-0.2c0,0,0-0.1,0-0.1
			c-0.1-0.2-0.2-0.4-0.4-0.4c-0.2-0.1-0.4-0.1-0.7-0.1h-0.5c0,0-0.1,0-0.1,0.1V27.3z"/>
		<path class="st2" d="M64.3,22.8c0-0.1,0.1-0.1,0.1-0.1H66c0.1,0,0.1,0,0.1,0.1l2.3,5.8c0,0.1,0,0.1-0.1,0.1h-1.7
			c-0.1,0-0.1,0-0.1-0.1l-0.3-0.9h-2.2l-0.3,0.9c0,0.1-0.1,0.1-0.1,0.1H62c-0.1,0-0.1,0-0.1-0.1L64.3,22.8z M65.9,26.4l-0.6-1.9h0
			l-0.7,1.9H65.9z"/>
		<path class="st2" d="M69.2,22.8c0-0.1,0-0.1,0.1-0.1h1.6c0.1,0,0.1,0,0.1,0.1v4.5c0,0,0,0.1,0.1,0.1h2.9c0.1,0,0.1,0,0.1,0.1v1.2
			c0,0.1,0,0.1-0.1,0.1h-4.7c-0.1,0-0.1,0-0.1-0.1V22.8z"/>
		<path class="st2" d="M77.3,28.8c-0.3,0-0.6,0-0.8-0.1c-0.3,0-0.5-0.1-0.8-0.2c-0.2-0.1-0.5-0.2-0.7-0.3c-0.2-0.1-0.4-0.2-0.5-0.3
			c-0.1,0-0.1-0.1,0-0.1l0.9-0.9c0,0,0.1,0,0.1,0c0.2,0.2,0.5,0.3,0.8,0.4c0.3,0.1,0.6,0.2,1,0.2c0.3,0,0.6-0.1,0.7-0.2
			c0.2-0.1,0.2-0.2,0.2-0.4c0-0.1-0.1-0.2-0.2-0.3c-0.1-0.1-0.4-0.1-0.7-0.2l-0.4,0c-0.7-0.1-1.3-0.3-1.7-0.6
			c-0.4-0.3-0.6-0.7-0.6-1.3c0-0.3,0.1-0.5,0.2-0.8c0.1-0.2,0.3-0.4,0.5-0.6c0.2-0.2,0.5-0.3,0.8-0.4c0.3-0.1,0.7-0.1,1.1-0.1
			c0.5,0,0.9,0.1,1.4,0.2c0.4,0.1,0.8,0.3,1.1,0.5c0.1,0,0.1,0.1,0,0.1l-0.8,1c0,0-0.1,0.1-0.1,0c-0.2-0.1-0.5-0.3-0.7-0.3
			C77.9,24,77.6,24,77.3,24c-0.3,0-0.4,0-0.6,0.1c-0.1,0.1-0.2,0.2-0.2,0.4c0,0.1,0.1,0.2,0.2,0.3c0.1,0.1,0.4,0.1,0.7,0.2l0.4,0
			c0.8,0.1,1.3,0.3,1.7,0.6c0.4,0.3,0.6,0.7,0.6,1.3c0,0.3-0.1,0.5-0.2,0.8c-0.1,0.2-0.3,0.4-0.5,0.6c-0.2,0.2-0.5,0.3-0.9,0.4
			C78.1,28.8,77.7,28.8,77.3,28.8z"/>
		<path class="st2" d="M82.8,22.8c0-0.1,0.1-0.1,0.1-0.1h1.7c0.1,0,0.1,0,0.1,0.1l2.3,5.8c0,0.1,0,0.1-0.1,0.1h-1.7
			c-0.1,0-0.1,0-0.1-0.1l-0.3-0.9h-2.2l-0.3,0.9c0,0.1-0.1,0.1-0.1,0.1h-1.7c-0.1,0-0.1,0-0.1-0.1L82.8,22.8z M84.4,26.4l-0.6-1.9h0
			L83,26.4H84.4z"/>
		<path class="st2" d="M90.1,28.8c-0.4,0-0.8-0.1-1.1-0.2c-0.3-0.1-0.6-0.3-0.9-0.5c-0.2-0.2-0.4-0.5-0.6-0.8
			c-0.1-0.3-0.2-0.7-0.2-1.1v-3.6c0-0.1,0-0.1,0.1-0.1H89c0.1,0,0.1,0,0.1,0.1v3.7c0,0.3,0.1,0.5,0.3,0.7c0.2,0.2,0.4,0.2,0.7,0.2
			c0.3,0,0.5-0.1,0.7-0.2C91,27,91,26.8,91,26.5v-3.7c0-0.1,0-0.1,0.1-0.1h1.6c0.1,0,0.1,0,0.1,0.1v3.6c0,0.4-0.1,0.8-0.2,1.1
			c-0.1,0.3-0.3,0.6-0.6,0.8c-0.2,0.2-0.5,0.4-0.9,0.5C90.9,28.8,90.5,28.8,90.1,28.8z"/>
		<path class="st2" d="M93.9,22.8c0-0.1,0-0.1,0.1-0.1h2.7c0.6,0,1.1,0.1,1.6,0.3c0.4,0.2,0.7,0.6,0.9,1c0,0.1,0.1,0.2,0.1,0.3
			c0,0.1,0,0.2,0.1,0.3c0,0.1,0,0.3,0,0.4c0,0.2,0,0.4,0,0.6c0,0.2,0,0.4,0,0.6c0,0.2,0,0.3,0,0.4c0,0.1,0,0.2-0.1,0.3
			c0,0.1-0.1,0.2-0.1,0.3c-0.2,0.5-0.5,0.8-0.9,1c-0.4,0.2-0.9,0.3-1.6,0.3H94c-0.1,0-0.1,0-0.1-0.1V22.8z M95.7,27.3
			C95.7,27.3,95.7,27.3,95.7,27.3l0.6,0.1c0.3,0,0.6,0,0.7-0.1c0.2-0.1,0.3-0.2,0.4-0.4c0,0,0-0.1,0-0.1c0-0.1,0-0.1,0-0.2
			c0-0.1,0-0.2,0-0.3c0-0.1,0-0.3,0-0.4c0-0.2,0-0.3,0-0.4c0-0.1,0-0.2,0-0.3c0-0.1,0-0.1,0-0.2c0,0,0-0.1,0-0.1
			c-0.1-0.2-0.2-0.4-0.4-0.4c-0.2-0.1-0.4-0.1-0.7-0.1h-0.5c0,0-0.1,0-0.1,0.1V27.3z"/>
		<path class="st2" d="M100.3,22.8c0-0.1,0-0.1,0.1-0.1h1.6c0.1,0,0.1,0,0.1,0.1v5.8c0,0.1,0,0.1-0.1,0.1h-1.6c-0.1,0-0.1,0-0.1-0.1
			V22.8z"/>
	</g>
</g>
</svg>
