<?xml version="1.0" encoding="utf-8"?>
<!-- Generator: Adobe Illustrator 25.0.0, SVG Export Plug-In . SVG Version: 6.00 Build 0)  -->
<svg version="1.1" id="Layer_1" xmlns="http://www.w3.org/2000/svg" xmlns:xlink="http://www.w3.org/1999/xlink" x="0px" y="0px"
	 viewBox="0 0 195 41" style="enable-background:new 0 0 195 41;" xml:space="preserve">
<style type="text/css">
	.st0{fill:url(#SVGID_1_);}
	.st1{fill:url(#SVGID_2_);}
	.st2{fill:#FFFFFF;}
</style>
<g>
	<g>
		<g>
			<linearGradient id="SVGID_1_" gradientUnits="userSpaceOnUse" x1="127.8233" y1="20.5" x2="155.1156" y2="20.5">
				<stop  offset="0" style="stop-color:#E7E56A"/>
				<stop  offset="1" style="stop-color:#12B3B9"/>
			</linearGradient>
			<path class="st0" d="M151.8,23.6H149l1.5-6.3h1.3c1.1,0,1.9-0.2,2.5-0.6c0.6-0.4,0.8-1,0.8-1.7c0-1.6-1.2-2.4-3.6-2.4l0.9-4.1
				c0-0.1,0.1-0.2,0.1-0.5c0.1-0.3,0.1-0.5,0.2-0.8c0-0.3,0.1-0.6,0.1-0.9c0-0.7-0.2-1.2-0.7-1.6c-0.5-0.4-1.1-0.6-2-0.6
				c-0.7,0-1.3,0.2-1.7,0.5c-0.4,0.3-0.7,0.7-0.8,1.2c-0.1,0.5-0.3,1.1-0.5,1.8l-1.2,4.9h-5.4l0.9-4c0.3-1.3,0.4-2,0.4-2.2
				c0-0.6-0.2-1.2-0.7-1.6c-0.5-0.4-1.1-0.6-2-0.6c-0.6,0-1.1,0.1-1.5,0.4c-0.4,0.2-0.7,0.6-0.9,1.1s-0.4,1.1-0.6,2l-1.2,4.9h-3.7
				c-1.1,0-2,0.2-2.5,0.7c-0.4,0.3-0.6,0.7-0.8,1.1h9l0.9-4.3c0.1-0.3,0.4-0.5,0.7-0.5c0,0,0.1,0,0.1,0c0.4,0.1,0.6,0.4,0.6,0.7
				l-1,4.7c0,0.2-0.1,0.3-0.3,0.4c0,0,0,0,0,0c-0.1,0.2-0.3,0.3-0.6,0.3h-9.4c0.1,0.4,0.4,0.8,0.8,1.1c0.6,0.5,1.4,0.7,2.5,0.7h2.6
				l-1.4,6.3h-1.2c-1.1,0-2,0.2-2.5,0.7c-0.6,0.5-0.9,1-0.9,1.8c0,1.5,1.1,2.3,3.4,2.4l-0.9,4c-0.1,0.3-0.1,0.7-0.2,1.1
				c-0.1,0.4-0.1,0.8-0.1,1.1c0,0.6,0.2,1.2,0.7,1.6c0.2,0.2,0.4,0.3,0.6,0.4c0,0,0,0,0-0.1l2.7-10.4c0-0.2,0.2-0.3,0.3-0.4
				c0,0,0,0,0,0c0.1-0.1,0.3-0.1,0.5-0.1h10.4l1.4-6.7c0.1-0.3,0.4-0.5,0.7-0.5c0,0,0.1,0,0.1,0c0.4,0.1,0.6,0.4,0.6,0.7l-1.5,7.2
				c0,0,0,0.1,0,0.1c0,0,0,0,0,0c-0.1,0.3-0.4,0.5-0.7,0.5h-10.5l-2.5,9.9c0,0,0,0,0,0c1,0,1.7-0.3,2-0.8c0.3-0.5,0.6-1.4,0.9-2.6
				l1.2-5h5.5l-0.9,4c-0.2,0.9-0.3,1.6-0.3,2.2c0,0.6,0.2,1.2,0.7,1.6c0.5,0.4,1.1,0.6,2,0.6c0.7,0,1.3-0.2,1.7-0.5
				c0.4-0.3,0.7-0.7,0.8-1.1c0.1-0.4,0.3-1,0.5-1.8l1.2-5h3.8c1.1,0,2-0.2,2.5-0.7c0.6-0.4,0.8-1,0.8-1.7c0-0.7-0.3-1.3-0.8-1.8
				C153.7,23.9,152.9,23.6,151.8,23.6z M138.9,8.9c-1.1,0-2-0.8-2-1.7c0-0.9,0.9-1.7,2-1.7c1.1,0,2,0.8,2,1.7
				C140.9,8.1,140,8.9,138.9,8.9z M143.5,23.6h-5.5l1.5-6.3h5.5L143.5,23.6z M148.6,13.5c-0.6,0-1.2-0.5-1.2-1c0-0.6,0.5-1,1.2-1
				c0.6,0,1.2,0.5,1.2,1C149.8,13.1,149.3,13.5,148.6,13.5z M150.8,6.1c0.1-0.3,0.4-0.5,0.7-0.5c0.1,0,0.1,0,0.2,0
				c0.4,0.1,0.6,0.4,0.5,0.7l-1.1,4.2c-0.1,0.3-0.5,0.5-0.9,0.5c-0.4-0.1-0.6-0.4-0.5-0.7L150.8,6.1z M147.5,10l1.1-4.3
				c0.1-0.3,0.4-0.5,0.7-0.5c0.1,0,0.1,0,0.2,0c0.4,0.1,0.6,0.4,0.5,0.7l-1.1,4.2c-0.1,0.3-0.5,0.5-0.9,0.5
				C147.7,10.7,147.4,10.4,147.5,10z M148.1,16.3c-0.6,0-1.2-0.5-1.2-1c0-0.6,0.5-1,1.2-1c0.6,0,1.2,0.5,1.2,1
				C149.3,15.9,148.7,16.3,148.1,16.3z"/>
		</g>
		<linearGradient id="SVGID_2_" gradientUnits="userSpaceOnUse" x1="137.7449" y1="7.1529" x2="140.0673" y2="7.1529">
			<stop  offset="0" style="stop-color:#E7E56A"/>
			<stop  offset="1" style="stop-color:#12B3B9"/>
		</linearGradient>
		<ellipse class="st1" cx="138.9" cy="7.2" rx="1.2" ry="1"/>
	</g>
</g>
<g>
	<g>
		<path class="st2" d="M43.6,17.2c0,0.2,0,0.3,0.1,0.4c0.1,0.1,0.2,0.2,0.3,0.3c0.1,0.1,0.3,0.1,0.5,0.1c0.2,0,0.3,0,0.5,0h1.6
			c0.4,0,0.6,0,0.7-0.1s0.2-0.2,0.2-0.2c0-0.1-0.1-0.2-0.2-0.2c-0.1-0.1-0.2-0.2-0.4-0.3c-0.2-0.1-0.3-0.2-0.5-0.3
			c-0.2-0.1-0.4-0.2-0.5-0.4c-0.2-0.1-0.3-0.3-0.4-0.5c-0.1-0.2-0.2-0.4-0.2-0.6c0-0.3,0.1-0.5,0.2-0.7c0.1-0.2,0.3-0.4,0.5-0.5
			c0.2-0.1,0.5-0.3,0.7-0.3c0.3-0.1,0.6-0.1,0.9-0.1c0.4,0,0.8,0.1,1.2,0.2c0.3,0.1,0.6,0.3,0.8,0.5c0,0,0,0.1,0,0.1l-0.8,0.8
			c0,0-0.1,0-0.1,0c-0.1-0.1-0.3-0.2-0.4-0.2c-0.1,0-0.3-0.1-0.4-0.1c-0.2,0-0.3,0-0.5,0.1c-0.1,0.1-0.2,0.2-0.2,0.4
			c0,0.1,0.1,0.3,0.2,0.4c0.1,0.1,0.2,0.2,0.4,0.3c0.2,0.1,0.3,0.2,0.5,0.3c0.2,0.1,0.4,0.2,0.5,0.4c0.2,0.1,0.3,0.3,0.4,0.5
			c0.1,0.2,0.2,0.4,0.2,0.6c0,0.5-0.2,0.8-0.6,1.1c-0.4,0.3-0.9,0.4-1.7,0.4h-2.4c-0.5,0-1,0-1.3-0.1c-0.4-0.1-0.7-0.2-0.9-0.4
			c-0.2-0.2-0.4-0.4-0.5-0.6c-0.1-0.2-0.2-0.5-0.2-0.8c0-0.3,0-0.5,0.1-0.9c0.1-0.3,0.2-0.6,0.4-0.8c0,0,0.1-0.1,0.2,0l1.4,0.3
			c0,0,0.1,0,0.1,0.1c0,0,0,0,0,0.1c-0.1,0.2-0.2,0.3-0.2,0.5C43.7,16.7,43.6,16.9,43.6,17.2z M44.4,20.9c-0.1,0-0.1,0-0.1-0.1v-1
			c0-0.1,0-0.1,0.1-0.1h1.2c0.1,0,0.1,0,0.1,0.1v1c0,0.1,0,0.1-0.1,0.1H44.4z M46.1,20.9c-0.1,0-0.1,0-0.1-0.1v-1
			c0-0.1,0-0.1,0.1-0.1h1.2c0.1,0,0.1,0,0.1,0.1v1c0,0.1,0,0.1-0.1,0.1H46.1z"/>
		<path class="st2" d="M54.5,16.6c0,0.3,0,0.5-0.1,0.7c-0.1,0.2-0.2,0.3-0.3,0.5c-0.1,0.1-0.3,0.2-0.5,0.3c-0.2,0.1-0.4,0.1-0.7,0.1
			h-2.5c-0.1,0-0.1,0-0.1-0.1V17c0-0.1,0-0.1,0.1-0.1h1.6c0.2,0,0.3,0,0.4,0c0.1,0,0.2,0,0.2-0.1c0.1,0,0.1-0.1,0.1-0.2
			c0-0.1,0-0.1,0-0.2V16c0-0.2-0.1-0.3-0.2-0.4c-0.1-0.1-0.3-0.1-0.6-0.1h-1.2c-0.1,0-0.1,0-0.1-0.1v-1.1c0-0.1,0-0.1,0.1-0.1h1.9
			c0.6,0,1.1,0.1,1.4,0.4c0.3,0.3,0.5,0.7,0.5,1.2V16.6z"/>
		<path class="st2" d="M57.8,18.1c-0.4,0-0.7,0-1-0.1s-0.5-0.2-0.7-0.3c-0.2-0.1-0.4-0.3-0.5-0.6c-0.1-0.2-0.2-0.5-0.2-0.9
			c0-0.4,0.1-0.7,0.2-1c0.1-0.3,0.3-0.5,0.5-0.6c0.2-0.2,0.5-0.3,0.7-0.3c0.3-0.1,0.6-0.1,0.9-0.1c0.3,0,0.6,0,0.9,0.1
			c0.3,0.1,0.5,0.2,0.8,0.3c0.2,0.1,0.4,0.4,0.5,0.6c0.1,0.3,0.2,0.6,0.2,1v0.7h0.7c0.3,0,0.4,0.2,0.4,0.6c0,0.3,0,0.4-0.1,0.5
			c-0.1,0.1-0.2,0.1-0.3,0.1h-0.7v0.1c0,0.5-0.2,1-0.5,1.2C59.3,19.8,58.8,20,58,20h-1.6c-0.1,0-0.1,0-0.1-0.1v-1.1
			c0-0.1,0-0.1,0.1-0.1h1.1c0.1,0,0.3,0,0.4,0c0.1,0,0.2,0,0.3-0.1c0.1,0,0.1-0.1,0.2-0.2c0-0.1,0.1-0.2,0.1-0.3H57.8z M57.8,15.5
			c-0.2,0-0.4,0.1-0.5,0.2c-0.1,0.1-0.2,0.3-0.2,0.5c0,0.1,0,0.2,0.1,0.3c0,0.1,0.1,0.2,0.1,0.2c0.1,0.1,0.1,0.1,0.2,0.1
			c0.1,0,0.2,0,0.3,0h0.7v-0.7c0-0.3-0.1-0.4-0.2-0.5C58.2,15.5,58,15.5,57.8,15.5z"/>
		<path class="st2" d="M60.9,18.1c-0.1,0-0.2,0-0.3-0.1c-0.1-0.1-0.1-0.2-0.1-0.5c0-0.2,0-0.4,0.1-0.5c0.1-0.1,0.2-0.2,0.3-0.2h1.4
			c0.1,0,0.2,0.1,0.3,0.2c0.1,0.1,0.1,0.3,0.1,0.5c0,0.3,0,0.4-0.1,0.5c-0.1,0.1-0.2,0.1-0.3,0.1H60.9z"/>
		<path class="st2" d="M68.3,16.9c0.3,0,0.4,0.2,0.4,0.6c0,0.2,0,0.4-0.1,0.5c-0.1,0.1-0.2,0.2-0.3,0.2h-1.7c-0.2,0-0.5,0-0.7-0.1
			c-0.2,0-0.4-0.1-0.6-0.2c-0.2,0.1-0.5,0.2-0.7,0.2c-0.2,0-0.5,0.1-0.7,0.1h-1.6c-0.1,0-0.2,0-0.3-0.1c-0.1-0.1-0.1-0.2-0.1-0.5
			c0-0.4,0.1-0.6,0.4-0.6h0.9c0.1,0,0.2,0,0.4,0c0.1,0,0.3,0,0.4,0c-0.1-0.2-0.3-0.4-0.5-0.5c-0.2-0.1-0.4-0.3-0.6-0.4
			c-0.1,0-0.1-0.1-0.1-0.2c0-0.1,0-0.2,0-0.2v-0.6c0-0.1,0.1-0.2,0.2-0.2c0.2-0.1,0.4-0.1,0.6-0.2c0.2-0.1,0.5-0.1,0.8-0.1
			c0.3,0,0.6-0.1,0.9-0.1c0.4,0,0.8,0,1.1,0.1c0.3,0.1,0.6,0.2,0.8,0.3c0.2,0.1,0.4,0.3,0.4,0.4c0.1,0.2,0.1,0.3,0.1,0.5
			c0,0.1,0,0.3-0.1,0.4c-0.1,0.1-0.1,0.2-0.2,0.4c-0.1,0.1-0.2,0.2-0.3,0.3c-0.1,0.1-0.2,0.2-0.3,0.2c0.1,0,0.2,0,0.3,0
			c0.1,0,0.2,0,0.3,0H68.3z M65.4,16.8c0.5-0.2,0.7-0.5,0.7-0.8c0-0.1-0.1-0.2-0.2-0.3c-0.1-0.1-0.3-0.1-0.6-0.1c-0.2,0-0.4,0-0.5,0
			c-0.1,0-0.2,0.1-0.3,0.1c0.2,0.2,0.4,0.3,0.6,0.6C65.2,16.4,65.3,16.6,65.4,16.8z"/>
		<path class="st2" d="M68.4,18.1c-0.1,0-0.2,0-0.3-0.1C68,18,68,17.8,68,17.6c0-0.2,0-0.4,0.1-0.5c0.1-0.1,0.2-0.2,0.3-0.2h1.4
			c0.1,0,0.2,0.1,0.3,0.2c0.1,0.1,0.1,0.3,0.1,0.5c0,0.3,0,0.4-0.1,0.5c-0.1,0.1-0.2,0.1-0.3,0.1H68.4z"/>
		<path class="st2" d="M78,16.5c0,0.1,0.1,0.2,0.2,0.3c0.1,0.1,0.3,0.1,0.5,0.1H79c0.3,0,0.4,0.2,0.4,0.6c0,0.4-0.1,0.6-0.4,0.6
			c-0.2,0-0.5,0-0.7-0.1c-0.2-0.1-0.3-0.2-0.5-0.4c-0.1,0.2-0.3,0.3-0.5,0.4c-0.2,0.1-0.5,0.1-0.8,0.1h-0.3c-0.3,0-0.5,0-0.7-0.1
			c-0.2-0.1-0.3-0.2-0.4-0.3c-0.1,0.2-0.2,0.3-0.5,0.4c-0.2,0.1-0.5,0.1-0.8,0.1h-0.3c-0.3,0-0.5,0-0.7-0.1
			c-0.2-0.1-0.3-0.2-0.4-0.3c-0.1,0.2-0.2,0.3-0.4,0.4c-0.2,0.1-0.5,0.1-0.8,0.1h-1.3c-0.1,0-0.1,0-0.2,0c0,0-0.1,0-0.1-0.1
			c0,0-0.1-0.1-0.1-0.2c0-0.1,0-0.2,0-0.3c0-0.2,0-0.4,0.1-0.5c0.1-0.1,0.2-0.2,0.3-0.2h0.5c0.2,0,0.3,0,0.4-0.1
			c0.1-0.1,0.1-0.2,0.1-0.5V15c0-0.1,0-0.1,0.1-0.1h1.5c0.1,0,0.1,0,0.1,0.1v1.4c0,0.2,0,0.3,0.1,0.3c0.1,0.1,0.2,0.1,0.4,0.1
			c0.2,0,0.4,0,0.4-0.1s0.1-0.2,0.1-0.4V15c0-0.1,0-0.1,0.1-0.1h1.5c0.1,0,0.1,0,0.1,0.1v1.4c0,0.2,0,0.3,0.1,0.4
			c0.1,0.1,0.2,0.1,0.4,0.1c0.2,0,0.3,0,0.4-0.1c0.1-0.1,0.1-0.2,0.1-0.4v-1.9c0-0.1,0-0.1,0.1-0.1h1.5c0.1,0,0.1,0,0.1,0.1V16.5z"
			/>
		<path class="st2" d="M79.1,18.1c-0.1,0-0.2,0-0.3-0.1c-0.1-0.1-0.1-0.2-0.1-0.5c0-0.2,0-0.4,0.1-0.5c0.1-0.1,0.2-0.2,0.3-0.2h1.4
			c0.1,0,0.2,0.1,0.3,0.2c0.1,0.1,0.1,0.3,0.1,0.5c0,0.3,0,0.4-0.1,0.5c-0.1,0.1-0.2,0.1-0.3,0.1H79.1z"/>
		<path class="st2" d="M80.5,18.1c-0.1,0-0.2,0-0.3-0.1c-0.1-0.1-0.1-0.3-0.1-0.5c0-0.2,0-0.4,0.1-0.5c0.1-0.1,0.2-0.1,0.3-0.1h0.2
			c0.2,0,0.3,0,0.4-0.1c0.1-0.1,0.1-0.2,0.1-0.4v-4.2c0-0.1,0-0.1,0.1-0.1h1.5c0.1,0,0.1,0,0.1,0.1V17c0,0.4-0.1,0.7-0.3,0.8
			c-0.2,0.2-0.5,0.3-0.9,0.3H80.5z"/>
		<path class="st2" d="M85.8,18.1c0,0.1,0,0.1-0.1,0.1h-1.5c-0.1,0-0.1,0-0.1-0.1v-5.8c0-0.1,0-0.1,0.1-0.1h1.5c0.1,0,0.1,0,0.1,0.1
			V18.1z"/>
		<path class="st2" d="M89.6,15.5c-0.1,0-0.1,0-0.1-0.1v-1.1c0-0.1,0-0.1,0.1-0.1h1.9c0.6,0,1.1,0.1,1.4,0.4
			c0.3,0.3,0.5,0.7,0.5,1.2v0.6c0,0,0,0.1,0.1,0.2c0,0.1,0.1,0.1,0.1,0.2c0,0,0.1,0.1,0.2,0.1c0.1,0,0.2,0,0.3,0h0.3
			c0.3,0,0.4,0.2,0.4,0.6c0,0.2,0,0.4-0.1,0.5c-0.1,0.1-0.2,0.2-0.3,0.2c-0.3,0-0.5,0-0.7-0.1c-0.2-0.1-0.4-0.2-0.5-0.4
			C93,17.8,92.8,18,92.6,18c-0.2,0.1-0.5,0.1-0.8,0.1h-2.5c-0.1,0-0.1,0-0.1-0.1V17c0-0.1,0-0.1,0.1-0.1h1.6c0.2,0,0.3,0,0.4,0
			c0.1,0,0.2-0.1,0.2-0.1c0,0,0.1-0.1,0.1-0.2c0-0.1,0-0.2,0-0.3V16c0-0.2-0.1-0.3-0.2-0.4c-0.1-0.1-0.3-0.1-0.6-0.1H89.6z"/>
		<path class="st2" d="M94.4,18.1c-0.1,0-0.2,0-0.3-0.1C94,18,94,17.8,94,17.6c0-0.2,0-0.4,0.1-0.5c0.1-0.1,0.2-0.2,0.3-0.2h1.4
			c0.1,0,0.2,0.1,0.3,0.2c0.1,0.1,0.1,0.3,0.1,0.5c0,0.3,0,0.4-0.1,0.5c-0.1,0.1-0.2,0.1-0.3,0.1H94.4z"/>
		<path class="st2" d="M95.9,18.1c-0.1,0-0.2,0-0.3-0.1c-0.1-0.1-0.1-0.2-0.1-0.5c0-0.2,0-0.4,0.1-0.5c0.1-0.1,0.2-0.2,0.3-0.2h1.4
			c0.1,0,0.2,0.1,0.3,0.2c0.1,0.1,0.1,0.3,0.1,0.5c0,0.3,0,0.4-0.1,0.5c-0.1,0.1-0.2,0.1-0.3,0.1H95.9z"/>
		<path class="st2" d="M97.4,18.1c-0.1,0-0.2,0-0.3-0.1C97,18,97,17.8,97,17.6c0-0.2,0-0.4,0.1-0.5c0.1-0.1,0.2-0.2,0.3-0.2h1.4
			c0.1,0,0.2,0.1,0.3,0.2c0.1,0.1,0.1,0.3,0.1,0.5c0,0.3,0,0.4-0.1,0.5c-0.1,0.1-0.2,0.1-0.3,0.1H97.4z"/>
		<path class="st2" d="M98.9,18.1c-0.1,0-0.2,0-0.3-0.1c-0.1-0.1-0.1-0.3-0.1-0.5s0-0.4,0.1-0.5c0.1-0.1,0.2-0.1,0.3-0.1h0.2
			c0.2,0,0.3,0,0.4-0.1c0.1-0.1,0.1-0.2,0.1-0.4v-2c0-0.1,0-0.1,0.1-0.1h1.5c0.1,0,0.1,0,0.1,0.1V17c0,0.4-0.1,0.7-0.3,0.8
			c-0.2,0.2-0.5,0.3-0.9,0.3H98.9z M99.7,13.5c-0.1,0-0.1,0-0.1-0.1v-1c0-0.1,0-0.1,0.1-0.1h1.5c0.1,0,0.1,0,0.1,0.1v1
			c0,0.1,0,0.1-0.1,0.1H99.7z"/>
		<path class="st2" d="M102.9,14.5c0-0.1,0-0.1,0.1-0.1h1.5c0.1,0,0.1,0,0.1,0.1v2c0,0.1,0.1,0.2,0.2,0.3c0.1,0.1,0.3,0.1,0.5,0.1
			h0.3c0.3,0,0.4,0.2,0.4,0.6c0,0.2,0,0.4-0.1,0.5c-0.1,0.1-0.2,0.2-0.3,0.2c-0.2,0-0.4,0-0.6-0.1c-0.2,0-0.3-0.1-0.4-0.2V18
			c0,0.7-0.2,1.2-0.5,1.5c-0.3,0.3-0.9,0.5-1.6,0.5H102c-0.1,0-0.1,0-0.1-0.1v-1.1c0-0.1,0-0.1,0.1-0.1h0.2c0.3,0,0.5-0.1,0.6-0.2
			c0.1-0.2,0.1-0.4,0.1-0.7V14.5z"/>
		<path class="st2" d="M105.7,18.1c-0.1,0-0.2,0-0.3-0.1c-0.1-0.1-0.1-0.2-0.1-0.5c0-0.2,0-0.4,0.1-0.5c0.1-0.1,0.2-0.2,0.3-0.2h1.4
			c0.1,0,0.2,0.1,0.3,0.2c0.1,0.1,0.1,0.3,0.1,0.5c0,0.3,0,0.4-0.1,0.5c-0.1,0.1-0.2,0.1-0.3,0.1H105.7z"/>
		<path class="st2" d="M108.2,14.5c0-0.1,0-0.1,0.1-0.1h1.5c0.1,0,0.1,0,0.1,0.1v2c0,0.1,0.1,0.2,0.2,0.3c0.1,0.1,0.3,0.1,0.5,0.1
			h0.3c0.3,0,0.4,0.2,0.4,0.6c0,0.2,0,0.4-0.1,0.5c-0.1,0.1-0.2,0.2-0.3,0.2c-0.3,0-0.5,0-0.7-0.1c-0.2-0.1-0.3-0.2-0.5-0.4
			c-0.1,0.1-0.1,0.2-0.2,0.2c-0.1,0.1-0.2,0.1-0.3,0.1c-0.1,0-0.3,0-0.4,0.1c-0.2,0-0.3,0-0.5,0h-1.1c-0.1,0-0.2,0-0.3-0.1
			c-0.1-0.1-0.1-0.3-0.1-0.5c0-0.2,0-0.4,0.1-0.5c0.1-0.1,0.2-0.1,0.3-0.1h0.6c0.2,0,0.3,0,0.4-0.1c0.1-0.1,0.1-0.2,0.1-0.5V14.5z
			 M107.6,13.5c-0.1,0-0.1,0-0.1-0.1v-1c0-0.1,0-0.1,0.1-0.1h1.2c0.1,0,0.1,0,0.1,0.1v1c0,0.1,0,0.1-0.1,0.1H107.6z M109.3,13.5
			c-0.1,0-0.1,0-0.1-0.1v-1c0-0.1,0-0.1,0.1-0.1h1.2c0.1,0,0.1,0,0.1,0.1v1c0,0.1,0,0.1-0.1,0.1H109.3z"/>
		<path class="st2" d="M111,18.1c-0.1,0-0.2,0-0.3-0.1c-0.1-0.1-0.1-0.2-0.1-0.5c0-0.2,0-0.4,0.1-0.5c0.1-0.1,0.2-0.2,0.3-0.2h1.4
			c0.1,0,0.2,0.1,0.3,0.2c0.1,0.1,0.1,0.3,0.1,0.5c0,0.3,0,0.4-0.1,0.5c-0.1,0.1-0.2,0.1-0.3,0.1H111z"/>
		<path class="st2" d="M112.5,18.1c-0.1,0-0.2,0-0.3-0.1c-0.1-0.1-0.1-0.2-0.1-0.5c0-0.2,0-0.4,0.1-0.5c0.1-0.1,0.2-0.2,0.3-0.2h1.4
			c0.1,0,0.2,0.1,0.3,0.2c0.1,0.1,0.1,0.3,0.1,0.5c0,0.3,0,0.4-0.1,0.5c-0.1,0.1-0.2,0.1-0.3,0.1H112.5z"/>
		<path class="st2" d="M114,18.1c-0.1,0-0.2,0-0.3-0.1c-0.1-0.1-0.1-0.2-0.1-0.5c0-0.2,0-0.4,0.1-0.5c0.1-0.1,0.2-0.2,0.3-0.2h1.4
			c0.1,0,0.2,0.1,0.3,0.2c0.1,0.1,0.1,0.3,0.1,0.5c0,0.3,0,0.4-0.1,0.5c-0.1,0.1-0.2,0.1-0.3,0.1H114z"/>
		<path class="st2" d="M115.5,18.1c-0.1,0-0.2,0-0.3-0.1c-0.1-0.1-0.1-0.3-0.1-0.5c0-0.2,0-0.4,0.1-0.5c0.1-0.1,0.2-0.1,0.3-0.1h0.2
			c0.2,0,0.3,0,0.4-0.1c0.1-0.1,0.1-0.2,0.1-0.4v-4.2c0-0.1,0-0.1,0.1-0.1h1.5c0.1,0,0.1,0,0.1,0.1V17c0,0.4-0.1,0.7-0.3,0.8
			c-0.2,0.2-0.5,0.3-0.9,0.3H115.5z"/>
		<path class="st2" d="M120.7,18.1c0,0.1,0,0.1-0.1,0.1h-1.5c-0.1,0-0.1,0-0.1-0.1v-5.8c0-0.1,0-0.1,0.1-0.1h1.5
			c0.1,0,0.1,0,0.1,0.1V18.1z"/>
		<path class="st2" d="M41.3,22.8c0-0.1,0.1-0.1,0.1-0.1h1.7c0.1,0,0.1,0,0.1,0.1l2.3,5.8c0,0.1,0,0.1-0.1,0.1h-1.7
			c-0.1,0-0.1,0-0.1-0.1l-0.3-0.9h-2.2l-0.3,0.9c0,0.1-0.1,0.1-0.1,0.1H39c-0.1,0-0.1,0-0.1-0.1L41.3,22.8z M42.9,26.4l-0.6-1.9h0
			l-0.7,1.9H42.9z"/>
		<path class="st2" d="M46.2,22.8c0-0.1,0-0.1,0.1-0.1h1.6c0.1,0,0.1,0,0.1,0.1v4.5c0,0,0,0.1,0.1,0.1H51c0.1,0,0.1,0,0.1,0.1v1.2
			c0,0.1,0,0.1-0.1,0.1h-4.7c-0.1,0-0.1,0-0.1-0.1V22.8z"/>
		<path class="st2" d="M52.4,28.7L52.4,28.7C52.4,28.7,52.3,28.7,52.4,28.7c-0.1,0-0.1,0-0.1-0.1v0v-4.5c0,0,0,0-0.1-0.1h0h-1.7h0
			c0,0,0,0,0,0l0,0l0,0c0,0,0,0,0-0.1v-1.2c0,0,0-0.1,0.1-0.1h0h5.3c0,0,0.1,0,0.1,0l0,0c0,0,0,0,0,0V24c0,0,0,0.1,0,0.1
			c0,0,0,0-0.1,0h0h-1.7c0,0,0,0,0,0l0,0v0v4.5v0c0,0,0,0-0.1,0.1c0,0,0,0-0.1,0H52.4z"/>
		<path class="st2" d="M60.3,28.7c-0.1,0-0.1,0-0.2-0.1l-1-2h-0.7c0,0-0.1,0-0.1,0.1v2c0,0.1,0,0.1-0.1,0.1h-1.6
			c-0.1,0-0.1,0-0.1-0.1v-5.8c0-0.1,0-0.1,0.1-0.1h2.8c0.4,0,0.7,0,1.1,0.1c0.3,0.1,0.6,0.2,0.8,0.4c0.2,0.2,0.4,0.4,0.5,0.6
			c0.1,0.2,0.2,0.5,0.2,0.8c0,0.4-0.1,0.7-0.3,1c-0.2,0.3-0.5,0.5-0.8,0.7l1.3,2.3c0,0,0,0.1,0,0.1c0,0,0,0-0.1,0H60.3z M59.4,25.3
			c0.3,0,0.5-0.1,0.6-0.2c0.1-0.1,0.2-0.3,0.2-0.5c0-0.2-0.1-0.3-0.2-0.5c-0.1-0.1-0.3-0.2-0.6-0.2h-1c0,0-0.1,0-0.1,0.1v1.2
			c0,0,0,0.1,0.1,0.1H59.4z"/>
		<path class="st2" d="M63,22.8c0-0.1,0-0.1,0.1-0.1h4.5c0.1,0,0.1,0,0.1,0.1V24c0,0.1,0,0.1-0.1,0.1h-2.8c0,0-0.1,0-0.1,0.1V25
			c0,0,0,0.1,0.1,0.1h2.3c0.1,0,0.1,0,0.1,0.1v1.1c0,0.1,0,0.1-0.1,0.1h-2.3c0,0-0.1,0-0.1,0.1v1c0,0,0,0.1,0.1,0.1h2.8
			c0.1,0,0.1,0,0.1,0.1v1.1c0,0.1,0,0.1-0.1,0.1h-4.5c-0.1,0-0.1,0-0.1-0.1V22.8z"/>
		<path class="st2" d="M68.6,22.8c0-0.1,0-0.1,0.1-0.1h1.5c0.1,0,0.1,0,0.2,0.1l2.1,3.4h0v-3.4c0-0.1,0-0.1,0.1-0.1H74
			c0.1,0,0.1,0,0.1,0.1v5.8c0,0.1,0,0.1-0.1,0.1h-1.5c-0.1,0-0.1,0-0.2-0.1l-2.1-3.4h-0.1v3.4c0,0.1,0,0.1-0.1,0.1h-1.4
			c-0.1,0-0.1,0-0.1-0.1V22.8z"/>
		<path class="st2" d="M75.3,22.8c0-0.1,0-0.1,0.1-0.1H78c0.6,0,1.1,0.1,1.6,0.3c0.4,0.2,0.7,0.6,0.9,1c0,0.1,0.1,0.2,0.1,0.3
			c0,0.1,0,0.2,0.1,0.3c0,0.1,0,0.3,0,0.4c0,0.2,0,0.4,0,0.6c0,0.2,0,0.4,0,0.6c0,0.2,0,0.3,0,0.4c0,0.1,0,0.2-0.1,0.3
			c0,0.1-0.1,0.2-0.1,0.3c-0.2,0.5-0.5,0.8-0.9,1c-0.4,0.2-0.9,0.3-1.6,0.3h-2.7c-0.1,0-0.1,0-0.1-0.1V22.8z M77,27.3
			C77,27.3,77.1,27.3,77,27.3l0.6,0.1c0.3,0,0.6,0,0.7-0.1c0.2-0.1,0.3-0.2,0.4-0.4c0,0,0-0.1,0-0.1c0-0.1,0-0.1,0-0.2
			c0-0.1,0-0.2,0-0.3c0-0.1,0-0.3,0-0.4c0-0.2,0-0.3,0-0.4c0-0.1,0-0.2,0-0.3c0-0.1,0-0.1,0-0.2c0,0,0-0.1,0-0.1
			c-0.1-0.2-0.2-0.4-0.4-0.4c-0.2-0.1-0.4-0.1-0.7-0.1h-0.5c0,0-0.1,0-0.1,0.1V27.3z"/>
		<path class="st2" d="M83.3,22.8c0-0.1,0.1-0.1,0.1-0.1H85c0.1,0,0.1,0,0.1,0.1l2.3,5.8c0,0.1,0,0.1-0.1,0.1h-1.7
			c-0.1,0-0.1,0-0.1-0.1l-0.3-0.9h-2.2l-0.3,0.9c0,0.1-0.1,0.1-0.1,0.1H81c-0.1,0-0.1,0-0.1-0.1L83.3,22.8z M84.9,26.4l-0.6-1.9h0
			l-0.7,1.9H84.9z"/>
		<path class="st2" d="M88.2,22.8c0-0.1,0-0.1,0.1-0.1h1.6c0.1,0,0.1,0,0.1,0.1v4.5c0,0,0,0.1,0.1,0.1h2.9c0.1,0,0.1,0,0.1,0.1v1.2
			c0,0.1,0,0.1-0.1,0.1h-4.7c-0.1,0-0.1,0-0.1-0.1V22.8z"/>
		<path class="st2" d="M96.3,28.8c-0.3,0-0.6,0-0.8-0.1c-0.3,0-0.5-0.1-0.8-0.2c-0.2-0.1-0.5-0.2-0.7-0.3c-0.2-0.1-0.4-0.2-0.5-0.3
			c-0.1,0-0.1-0.1,0-0.1l0.9-0.9c0,0,0.1,0,0.1,0c0.2,0.2,0.5,0.3,0.8,0.4c0.3,0.1,0.6,0.2,1,0.2c0.3,0,0.6-0.1,0.7-0.2
			c0.2-0.1,0.2-0.2,0.2-0.4c0-0.1-0.1-0.2-0.2-0.3c-0.1-0.1-0.4-0.1-0.7-0.2l-0.4,0c-0.7-0.1-1.3-0.3-1.7-0.6
			c-0.4-0.3-0.6-0.7-0.6-1.3c0-0.3,0.1-0.5,0.2-0.8c0.1-0.2,0.3-0.4,0.5-0.6c0.2-0.2,0.5-0.3,0.8-0.4c0.3-0.1,0.7-0.1,1.1-0.1
			c0.5,0,0.9,0.1,1.4,0.2c0.4,0.1,0.8,0.3,1.1,0.5c0.1,0,0.1,0.1,0,0.1l-0.8,1c0,0-0.1,0.1-0.1,0c-0.2-0.1-0.5-0.3-0.7-0.3
			C96.9,24,96.6,24,96.3,24c-0.3,0-0.4,0-0.6,0.1c-0.1,0.1-0.2,0.2-0.2,0.4c0,0.1,0.1,0.2,0.2,0.3c0.1,0.1,0.4,0.1,0.7,0.2l0.4,0
			c0.8,0.1,1.3,0.3,1.7,0.6c0.4,0.3,0.6,0.7,0.6,1.3c0,0.3-0.1,0.5-0.2,0.8c-0.1,0.2-0.3,0.4-0.5,0.6c-0.2,0.2-0.5,0.3-0.9,0.4
			C97.1,28.8,96.7,28.8,96.3,28.8z"/>
		<path class="st2" d="M101.8,22.8c0-0.1,0.1-0.1,0.1-0.1h1.7c0.1,0,0.1,0,0.1,0.1l2.3,5.8c0,0.1,0,0.1-0.1,0.1h-1.7
			c-0.1,0-0.1,0-0.1-0.1l-0.3-0.9h-2.2l-0.3,0.9c0,0.1-0.1,0.1-0.1,0.1h-1.7c-0.1,0-0.1,0-0.1-0.1L101.8,22.8z M103.4,26.4l-0.6-1.9
			h0l-0.7,1.9H103.4z"/>
		<path class="st2" d="M109.1,28.8c-0.4,0-0.8-0.1-1.1-0.2c-0.3-0.1-0.6-0.3-0.9-0.5c-0.2-0.2-0.4-0.5-0.6-0.8
			c-0.1-0.3-0.2-0.7-0.2-1.1v-3.6c0-0.1,0-0.1,0.1-0.1h1.6c0.1,0,0.1,0,0.1,0.1v3.7c0,0.3,0.1,0.5,0.3,0.7c0.2,0.2,0.4,0.2,0.7,0.2
			c0.3,0,0.5-0.1,0.7-0.2c0.2-0.2,0.2-0.4,0.2-0.7v-3.7c0-0.1,0-0.1,0.1-0.1h1.6c0.1,0,0.1,0,0.1,0.1v3.6c0,0.4-0.1,0.8-0.2,1.1
			c-0.1,0.3-0.3,0.6-0.6,0.8c-0.2,0.2-0.5,0.4-0.9,0.5C109.9,28.8,109.5,28.8,109.1,28.8z"/>
		<path class="st2" d="M112.9,22.8c0-0.1,0-0.1,0.1-0.1h2.7c0.6,0,1.1,0.1,1.6,0.3c0.4,0.2,0.7,0.6,0.9,1c0,0.1,0.1,0.2,0.1,0.3
			c0,0.1,0,0.2,0.1,0.3c0,0.1,0,0.3,0,0.4c0,0.2,0,0.4,0,0.6c0,0.2,0,0.4,0,0.6c0,0.2,0,0.3,0,0.4c0,0.1,0,0.2-0.1,0.3
			c0,0.1-0.1,0.2-0.1,0.3c-0.2,0.5-0.5,0.8-0.9,1c-0.4,0.2-0.9,0.3-1.6,0.3H113c-0.1,0-0.1,0-0.1-0.1V22.8z M114.7,27.3
			C114.7,27.3,114.7,27.3,114.7,27.3l0.6,0.1c0.3,0,0.6,0,0.7-0.1c0.2-0.1,0.3-0.2,0.4-0.4c0,0,0-0.1,0-0.1c0-0.1,0-0.1,0-0.2
			c0-0.1,0-0.2,0-0.3c0-0.1,0-0.3,0-0.4c0-0.2,0-0.3,0-0.4c0-0.1,0-0.2,0-0.3c0-0.1,0-0.1,0-0.2c0,0,0-0.1,0-0.1
			c-0.1-0.2-0.2-0.4-0.4-0.4c-0.2-0.1-0.4-0.1-0.7-0.1h-0.5c0,0-0.1,0-0.1,0.1V27.3z"/>
		<path class="st2" d="M119.3,22.8c0-0.1,0-0.1,0.1-0.1h1.6c0.1,0,0.1,0,0.1,0.1v5.8c0,0.1,0,0.1-0.1,0.1h-1.6c-0.1,0-0.1,0-0.1-0.1
			V22.8z"/>
	</g>
</g>
</svg>
