<?xml version="1.0" encoding="utf-8"?>
<!-- Generator: Adobe Illustrator 25.0.0, SVG Export Plug-In . SVG Version: 6.00 Build 0)  -->
<svg version="1.1" id="Layer_1" xmlns="http://www.w3.org/2000/svg" xmlns:xlink="http://www.w3.org/1999/xlink" x="0px" y="0px"
	 viewBox="0 0 62 63" style="enable-background:new 0 0 62 63;" xml:space="preserve">
<style type="text/css">
	.st0{fill:#FFFFFF;}
</style>
<g>
	<g>
		<g>
			<path class="st0" d="M50.9,37.7h-5.3l2.9-12h2.4c2.1,0,3.7-0.4,4.8-1.2c1.1-0.8,1.6-1.9,1.6-3.3c0-3-2.3-4.5-6.8-4.6l1.8-7.8
				c0-0.1,0.1-0.5,0.2-1c0.1-0.5,0.2-1,0.3-1.6C52.9,5.6,53,5,53,4.5c0-1.3-0.5-2.3-1.4-3c-0.9-0.7-2.2-1.1-3.8-1.1
				c-1.4,0-2.5,0.3-3.3,0.9c-0.7,0.6-1.3,1.3-1.5,2.2c-0.3,0.9-0.6,2-0.9,3.5l-2.3,9.5H29.4l1.8-7.7C31.7,6.2,32,4.8,32,4.5
				c0-1.2-0.4-2.2-1.3-3c-0.9-0.8-2.2-1.2-3.9-1.2c-1.2,0-2.2,0.2-2.9,0.7c-0.7,0.5-1.3,1.2-1.8,2.1s-0.8,2.2-1.2,3.8l-2.2,9.5h-7.1
				c-2.1,0-3.7,0.4-4.8,1.3c-0.7,0.6-1.2,1.3-1.5,2.1h17.1l1.7-8.3c0.1-0.6,0.7-1,1.3-1c0.1,0,0.2,0,0.2,0c0.7,0.1,1.2,0.7,1.1,1.4
				L25,20.8c-0.1,0.3-0.3,0.6-0.5,0.7c0,0,0,0,0,0c-0.2,0.3-0.7,0.6-1.2,0.6h-18c0.2,0.8,0.7,1.5,1.5,2.1c1.1,0.9,2.7,1.3,4.8,1.3
				h4.9l-2.7,12h-2.2c-2.1,0-3.7,0.4-4.8,1.3c-1.1,0.9-1.6,2-1.6,3.4c0,3,2.2,4.5,6.6,4.5L10,54.6c-0.1,0.6-0.3,1.3-0.5,2.1
				c-0.2,0.8-0.3,1.5-0.3,2.1c0,1.2,0.5,2.2,1.4,3c0.4,0.3,0.8,0.5,1.2,0.7c0,0,0-0.1,0-0.1L17,42.6c0.1-0.3,0.3-0.6,0.7-0.8
				c0,0,0,0,0,0c0.2-0.2,0.5-0.3,0.9-0.3h19.9L41,28.7c0.1-0.6,0.7-1,1.3-1c0.1,0,0.2,0,0.2,0c0.7,0.1,1.2,0.7,1.1,1.4l-2.8,13.7
				c0,0.1,0,0.1,0,0.2c0,0,0,0,0,0c-0.1,0.5-0.7,0.9-1.3,0.9h-20l-4.9,19c0,0,0,0,0,0c2,0,3.3-0.5,3.9-1.5c0.6-1,1.2-2.7,1.8-5.1
				l2.2-9.5h10.5l-1.8,7.7c-0.4,1.7-0.7,3.1-0.7,4.2c0,1.2,0.5,2.2,1.4,3c0.9,0.8,2.2,1.2,3.8,1.2c1.4,0,2.5-0.3,3.3-0.9
				c0.8-0.6,1.3-1.3,1.5-2.2c0.3-0.8,0.6-2,0.9-3.5l2.2-9.5h7.3c2.2,0,3.8-0.4,4.8-1.3c1.1-0.8,1.6-1.9,1.6-3.3
				c0-1.3-0.5-2.5-1.6-3.3C54.7,38.1,53.1,37.7,50.9,37.7z M26.3,9.4c-2.1,0-3.8-1.5-3.8-3.3c0-1.8,1.7-3.3,3.8-3.3s3.8,1.5,3.8,3.3
				C30.1,7.9,28.4,9.4,26.3,9.4z M35.1,37.7H24.5l2.8-12h10.5L35.1,37.7z M45,18.3c-1.2,0-2.2-0.9-2.2-1.9c0-1.1,1-1.9,2.2-1.9
				c1.2,0,2.2,0.9,2.2,1.9C47.2,17.5,46.2,18.3,45,18.3z M49,4.2c0.1-0.6,0.7-0.9,1.3-0.9c0.1,0,0.2,0,0.3,0c0.7,0.1,1.2,0.8,1,1.4
				l-2,8.1c-0.2,0.6-0.9,1-1.6,0.9c-0.7-0.1-1.2-0.8-1-1.4L49,4.2z M42.8,11.6l2-8.1C45,3,45.5,2.6,46.2,2.6c0.1,0,0.2,0,0.3,0
				c0.7,0.1,1.2,0.8,1,1.4l-2,8.1c-0.2,0.6-0.9,1-1.6,0.9C43.1,12.9,42.6,12.3,42.8,11.6z M43.9,23.7c-1.2,0-2.2-0.9-2.2-1.9
				c0-1.1,1-1.9,2.2-1.9c1.2,0,2.2,0.9,2.2,1.9C46.2,22.8,45.2,23.7,43.9,23.7z"/>
		</g>
		<ellipse class="st0" cx="26.3" cy="6.1" rx="2.2" ry="1.9"/>
	</g>
</g>
</svg>
