<?xml version="1.0" encoding="utf-8"?>
<!-- Generator: Adobe Illustrator 25.0.0, SVG Export Plug-In . SVG Version: 6.00 Build 0)  -->
<svg version="1.1" id="Layer_1" xmlns="http://www.w3.org/2000/svg" xmlns:xlink="http://www.w3.org/1999/xlink" x="0px" y="0px"
	 viewBox="0 0 123 123" style="enable-background:new 0 0 123 123;" xml:space="preserve">
<style type="text/css">
	.st0{fill:#FFFFFF;}
</style>
<g>
	<g>
		<g>
			<path class="st0" d="M99.7,74.2H89.6l5.5-23h4.6c4.1,0,7.1-0.8,9.2-2.4c2.1-1.6,3.1-3.7,3.1-6.3c0-5.7-4.3-8.6-13-8.8l3.4-14.9
				c0.1-0.3,0.2-0.9,0.5-1.9c0.2-1,0.4-2,0.6-3.1c0.2-1.1,0.2-2.1,0.2-3.2c0-2.4-0.9-4.4-2.6-5.8c-1.7-1.4-4.2-2.1-7.3-2.1
				c-2.7,0-4.8,0.6-6.2,1.7C86,5.6,85,7,84.5,8.7c-0.5,1.7-1.1,3.9-1.7,6.7l-4.4,18.1H58.4l3.4-14.7c1-4.8,1.5-7.5,1.5-8
				c0-2.3-0.9-4.2-2.5-5.7c-1.7-1.5-4.2-2.2-7.4-2.2c-2.3,0-4.2,0.4-5.6,1.3c-1.4,0.9-2.6,2.2-3.4,4c-0.8,1.7-1.6,4.1-2.2,7.2
				L38,33.5H24.4c-4.1,0-7.1,0.8-9.2,2.4c-1.4,1.1-2.4,2.4-2.8,4h32.8l3.3-15.8c0.2-1.1,1.3-1.9,2.6-1.9c0.2,0,0.3,0,0.5,0
				c1.4,0.2,2.4,1.4,2.1,2.6L50,42c-0.1,0.6-0.5,1.1-1,1.4c0,0,0,0,0,0c-0.5,0.6-1.3,1.1-2.2,1.1H12.3c0.5,1.6,1.4,2.9,2.9,4.1
				c2.2,1.7,5.2,2.6,9.2,2.6h9.5l-5.2,23h-4.3c-4.1,0-7.1,0.8-9.2,2.5C13,78.3,12,80.5,12,83.1c0,5.7,4.2,8.6,12.6,8.7l-3.4,14.8
				c-0.2,1.2-0.5,2.5-0.9,4c-0.3,1.5-0.5,2.9-0.5,4.1c0,2.4,0.9,4.3,2.6,5.8c0.7,0.6,1.5,1,2.4,1.4c0-0.1,0-0.2,0-0.2l9.7-38
				c0.2-0.6,0.6-1.2,1.3-1.5c0,0,0,0,0,0c0.5-0.3,1-0.5,1.7-0.5h38L80.7,57c0.2-1.1,1.3-1.9,2.6-1.9c0.2,0,0.3,0,0.5,0
				c1.4,0.2,2.4,1.4,2.1,2.6l-5.4,26.3c0,0.1-0.1,0.2-0.1,0.3c0,0,0,0,0,0c-0.2,1-1.3,1.8-2.5,1.8H39.3L30,122.7c0,0,0,0.1,0,0.1
				c3.8,0,6.3-1,7.4-3c1.2-2,2.3-5.2,3.4-9.7l4.3-18.2h20.1l-3.4,14.8c-0.9,3.2-1.3,5.9-1.3,8.1c0,2.4,0.9,4.3,2.6,5.8
				c1.8,1.5,4.2,2.2,7.2,2.2c2.7,0,4.8-0.6,6.3-1.8c1.5-1.2,2.4-2.6,3-4.2c0.5-1.6,1.1-3.8,1.8-6.7l4.3-18.2h14
				c4.1,0,7.2-0.8,9.2-2.4c2-1.6,3.1-3.7,3.1-6.3c0-2.6-1-4.7-3.1-6.4C106.8,75,103.8,74.2,99.7,74.2z M52.6,20.1
				c-4,0-7.2-2.8-7.2-6.3c0-3.5,3.2-6.3,7.2-6.3s7.2,2.8,7.2,6.3C59.8,17.3,56.6,20.1,52.6,20.1z M69.3,74.2H49l5.4-23h20.1
				L69.3,74.2z M88.3,37.1c-2.3,0-4.3-1.7-4.3-3.7c0-2,1.9-3.7,4.3-3.7c2.3,0,4.3,1.7,4.3,3.7C92.5,35.5,90.6,37.1,88.3,37.1z
				 M96,10.1c0.3-1.1,1.3-1.8,2.5-1.8c0.2,0,0.4,0,0.6,0.1c1.4,0.3,2.3,1.5,2,2.7l-3.9,15.6c-0.3,1.2-1.7,2-3.1,1.7
				c-1.4-0.3-2.3-1.5-2-2.7L96,10.1z M84.1,24.3L88,8.8C88.3,7.7,89.4,7,90.6,7c0.2,0,0.4,0,0.6,0.1c1.4,0.3,2.3,1.5,2,2.7
				l-3.9,15.6c-0.3,1.2-1.7,2-3.1,1.7C84.7,26.8,83.8,25.6,84.1,24.3z M86.3,47.4c-2.3,0-4.3-1.7-4.3-3.7c0-2,1.9-3.7,4.3-3.7
				c2.3,0,4.3,1.7,4.3,3.7C90.6,45.7,88.7,47.4,86.3,47.4z"/>
		</g>
		<ellipse class="st0" cx="52.6" cy="13.8" rx="4.3" ry="3.7"/>
	</g>
</g>
</svg>
